<svg xmlns="http://www.w3.org/2000/svg" width="70" height="72"><g fill="none"><path fill="#F0C782" d="M69.974 37.47c0 19-15.665 34.403-34.987 34.403C15.664 71.873 0 56.47 0 37.47S15.664 3.067 34.987 3.067c19.322 0 34.987 15.403 34.987 34.403"/><path fill="#3F3F3F" d="M48.13 7.396h.002v-.388l-.202.332c1.29.76 2.502 1.629 3.627 2.594a.399.399 0 00.556-.037.382.382 0 00-.038-.546 26.025 26.025 0 00-3.74-2.675l-.094-.055h-.11a.39.39 0 00-.394.387c0 .214.176.388.394.388z"/><path fill="#EB837C" d="M58.826 31.854a7.113 7.113 0 01-1.592 4.5 7.337 7.337 0 01-4.1 2.53l-.245.034-.122.008v.182c0 .327-.09.641-.423.641h-1.6c.211-2.797.357-5.834.357-8.904-.069-1.654.051-4.129.236-6.767h1.007c.333 0 .423.215.423.542v.163l.124.008.203.035c3.339.745 5.732 3.662 5.732 7.028zm-39.311 7.895H17.63c-.333 0-.424-.314-.424-.641v-.182l-.122-.008-.244-.035a7.327 7.327 0 01-4.1-2.53 7.112 7.112 0 01-1.592-4.499c0-3.366 2.393-6.283 5.731-7.029l.203-.034.125-.008v-.163c0-.327.09-.543.423-.543h1.162l.067.082c.225 2.475.388 4.943.31 6.839 0 3.026.141 6.006.346 8.75z"/><path fill="#69C4A0" d="M52.934 9.643c-1.167.142-2.369.052-3.092-.66-1.771-1.74-5.69-7.835-12.475-7.835-6.786 0-11.143 2.773-13.766 6.723-1.77 2.663-5.535 4.387-5.535 7.175 0 3.095 1.298 11.308 1.102 16.004 0 10.769 1.797 20.984 1.797 21.951 0 1.903 9.791 10.11 14.215 10.11 4.423 0 14.123-7.627 14.123-10.11 0-.967 1.798-11.341 1.798-22.11-.142-3.39.515-10.202.88-14.846l.321-.42c.923-1.16 1.524-2.3 2.273-3.65.636-1.146-.324-2.492-1.64-2.332"/><path fill="#F6F7F2" d="M49.841 28.381c0 2.779-.346 12.304-.757 16.917-.152.012-27.79.004-28.008-.025-.408-4.392-.748-14.117-.748-16.872 0-2.534.696-7.269.972-9.04a.778.778 0 01.82-.654c.35.021.813.046 1.356.077h.037l.854.05 2.593.147.823.046.218.011.045.003c3 .164 6.09.32 7.038.319.327 0 .91-.018 1.653-.05 3.156-.13 9.242-.486 11.312-.608a.775.775 0 01.82.65c.057.36.13.843.21 1.407.322 2.197.762 5.604.762 7.622"/><path fill="#EBECE8" d="M48.099 19.087c-.017 0-.033 0-.05.002-2.07.121-8.156.478-11.312.607-.743.033-1.326.05-1.652.05h-.017c-.967 0-4.038-.155-7.021-.319L28 19.425l-.218-.012c3.519 3.216 7.4 5.447 11.685 5.447 3.001 0 6.201-1.095 9.612-3.715-.08-.563-.154-1.046-.21-1.407a.777.777 0 00-.771-.651"/><path fill="#69C4A0" d="M25.7 16.912c6.843 6.73 15.1 10.06 25.086.242l-25.087-.242z"/><path fill="#62B592" d="M34.048 60.654h-.164a44.304 44.304 0 01-5.685-.416.291.291 0 01-.247-.331.296.296 0 01.337-.243c.104.015 10.388 1.535 13.375-1.403 2.02-1.986.157-7.109.138-7.16a.29.29 0 01.176-.373.296.296 0 01.379.174c.083.224 2.008 5.526-.275 7.77-1.337 1.315-4.04 1.982-8.034 1.982"/><path fill="#62B592" d="M30.864 57.81c-3.13 0-6.11-.394-6.34-.425a.291.291 0 01-.253-.327.295.295 0 01.333-.249c.026.004 2.657.355 5.546.411 3.762.07 6.245-.376 7.182-1.298 2.219-2.182-.69-5.86-.719-5.897a.288.288 0 01.049-.409.3.3 0 01.415.048c.134.167 3.264 4.121.672 6.67-1.183 1.162-4.094 1.476-6.885 1.476"/><path fill="#62B592" d="M29.97 54.74c-.952 0-2.094-.063-3.431-.189-2.702-.254-5.22-.686-5.246-.69a.292.292 0 01-.24-.336.296.296 0 01.343-.236c2.745.473 10.17 1.465 11.536.383a.544.544 0 00.225-.446c.017-.847-1.319-2.178-1.835-2.62a.288.288 0 01-.03-.41.3.3 0 01.418-.029c.211.181 2.063 1.802 2.038 3.07-.007.356-.16.663-.445.888-.52.41-1.62.615-3.333.615m18.152.67a.294.294 0 01-.277-.187c-.152-.395-.959-2.468-1.811-4.538a.287.287 0 01.163-.378c.15-.06.323.011.384.16.855 2.075 1.663 4.154 1.817 4.55a.289.289 0 01-.171.374.3.3 0 01-.105.02m4.367-42.148c-1.323 0-3.098-.425-5.146-1.26-5.575-2.27-11.218-6.728-11.218-10.855 0-.16.132-.29.296-.29.163 0 .295.13.295.29 0 3.83 5.592 8.175 10.853 10.318 3.144 1.28 5.712 1.582 6.54.767a.3.3 0 01.419 0 .287.287 0 010 .41c-.422.415-1.122.62-2.039.62zm-2.403 3.482c-.912 0-1.97-.127-2.937-.307-6.328-1.184-14.96-5.38-18.462-13.313-.065-.147.004-.318.154-.382s.324.003.388.15c3.41 7.725 11.845 11.817 18.03 12.974 2.475.463 4.144.337 4.514-.027a.298.298 0 01.418 0 .287.287 0 010 .41c-.363.358-1.155.495-2.105.495z"/><path fill="#62B592" d="M43.708 19.485c-1.375 0-2.835-.128-4.31-.393-3.49-.627-12.02-2.993-15.872-11.388a.29.29 0 01.148-.385.297.297 0 01.39.146c3.737 8.145 12.043 10.445 15.44 11.056 4.84.87 9.474.245 11.27-1.52a.297.297 0 01.417 0 .285.285 0 010 .41c-1.358 1.336-4.177 2.074-7.483 2.074z"/><path fill="#E1BB7A" d="M19.903 44.182a.235.235 0 00-.145.173c-.279 1.27-.374 4.17.914 6.225-.21-1.564-.5-3.779-.769-6.398m30.454-.017c-.249 2.43-.514 4.516-.716 6.056 1.131-2.021 1.174-4.675.91-5.872a.233.233 0 00-.194-.184"/><path fill="#62B896" d="M50.314 44.161a.24.24 0 00-.23.157 5.63 5.63 0 01-.745 1.368c-.57.756-1.442 1.444-2.75 1.558-.125.01-.253.016-.385.016-1.078 0-2.578-1.32-4.624-1.957l-4.06-.001c-.172.06-.335.124-.49.191l-3.914-.068a6.43 6.43 0 00-.333-.126l-4.028-.004c-2.058.634-3.566 1.965-4.647 1.965-.197 0-.385-.012-.565-.036-1.411-.185-2.289-1.05-2.818-1.901a5.6 5.6 0 01-.497-1.005.241.241 0 00-.228-.155.25.25 0 00-.097.019c.27 2.619.56 4.834.769 6.398.222.355.485.684.796.976 1.117 1.049 2.849 1.78 5.48 1.78 2.646 0 4.541-.516 5.837-1.097-.43-.669-1.124-1.343-1.463-1.633a.288.288 0 01-.03-.41.301.301 0 01.418-.029c.144.124 1.053.918 1.607 1.814.948-.499 1.485-.998 1.703-1.226a.158.158 0 01.23 0c.283.292 1.105 1.035 2.65 1.648-.44-1.308-1.271-2.36-1.287-2.379a.287.287 0 01.049-.408.297.297 0 01.414.048c.077.094 1.117 1.408 1.53 2.992 1.004.324 2.254.578 3.784.655a15.306 15.306 0 00-.589-2.21.291.291 0 01.177-.373.296.296 0 01.379.174c.035.096.406 1.116.642 2.43.12.002.24.003.363.003 1.402 0 2.55-.24 3.486-.64-.251-.63-.53-1.32-.814-2.01a.288.288 0 01.162-.379.295.295 0 01.385.16c.279.676.552 1.352.8 1.97a5.946 5.946 0 001.264-.914c.4-.38.728-.823.996-1.301.202-1.541.467-3.626.716-6.056a.313.313 0 00-.043-.004"/><path fill="#E7E8E3" d="M30.848 44.968c-.754 0-1.45 1.16-2.093 2.93 1.273.013 2.636.023 4.028.034-.566-1.752-1.218-2.964-1.935-2.964m8.614 0c-.72 0-1.375 1.228-1.943 2.99 1.407.005 2.781.008 4.061.01-.65-1.81-1.354-3-2.118-3"/><path fill="#5CAA89" d="M42.08 50.71a.305.305 0 00-.102.018.29.29 0 00-.176.373c.008.022.354.973.589 2.21.198.01.4.017.609.021a15.487 15.487 0 00-.643-2.43.295.295 0 00-.277-.191m-5.235-1.157c-.064 0-.13.02-.183.062a.289.289 0 00-.049.409c.016.02.847 1.07 1.287 2.379.22.087.455.172.706.253-.413-1.585-1.453-2.898-1.53-2.993a.296.296 0 00-.231-.11m-5.329.542a.296.296 0 00-.223.1.287.287 0 00.029.41c.339.29 1.032.965 1.463 1.633.19-.085.367-.171.532-.258-.554-.895-1.463-1.69-1.607-1.814a.3.3 0 00-.194-.07m14.791.188a.284.284 0 00-.11.022.288.288 0 00-.163.378c.284.69.563 1.38.815 2.01.185-.08.363-.166.532-.258-.248-.618-.521-1.294-.8-1.97a.295.295 0 00-.274-.182"/><path fill="#63BA95" d="M48.497 49.2c-1.122 1.067-2.807 1.814-5.282 1.814-5.27 0-7.593-2.045-8.113-2.581a.16.16 0 00-.23 0c-.513.54-2.804 2.58-8.072 2.58-2.63 0-4.363-.73-5.48-1.78-2.11-1.98-2.036-5.71-1.71-7.2.052-.236.383-.261.47-.037.113.3.274.65.497 1.005.53.852 1.407 1.716 2.819 1.9.18.024.367.037.565.037 1.418 0 3.571-2.292 6.74-2.292.862 0 1.63.196 2.267.457l3.915.068a6.056 6.056 0 012.432-.525c3.168 0 5.321 2.292 6.741 2.292.133 0 .26-.006.386-.016 1.308-.114 2.18-.802 2.75-1.558.355-.47.591-.966.745-1.367.086-.225.416-.203.466.03.327 1.48.184 5.188-1.906 7.173z"/><path fill="#F6F7F2" d="M36.687 40.729c.279 1.06.513 2.024.513 2.26 0 .58-1.033 1.451-2.213 1.451-1.18 0-2.214-.87-2.214-1.451 0-.384.623-2.7 1.043-4.221"/><path fill="#3F3F3F" d="M55.293 12.654l.147-.262a2.49 2.49 0 00-.043-2.52 2.607 2.607 0 00-2.25-1.262c-.11 0-.223.007-.333.02-.27.033-.527.05-.762.05-.49 0-1.15-.075-1.514-.433-.265-.26-.607-.658-1.004-1.117C47.42 4.683 43.484.127 37.366.127c-3.384 0-6.381.671-8.907 1.994a15.072 15.072 0 00-4.125 3.175 25.87 25.87 0 00-10.622 8.622 25.118 25.118 0 00-4.73 14.708v5.33c0 .214.177.387.395.387a.39.39 0 00.394-.387v-1.945h.401a8.116 8.116 0 001.81 4.947 8.372 8.372 0 004.485 2.828c.069.173.168.341.31.483.23.227.531.352.852.352h.964l.09 1.08a1.265 1.265 0 00-.036.128c-.265 1.209-.441 4.064.732 6.393.138 1.1.264 2.047.367 2.814.12.894.232 1.738.234 1.914 0 .505.212 1.307 1.865 3.043 1.04 1.094 2.449 2.333 3.965 3.49 1.79 1.366 6.289 4.544 9.37 4.544 3.258 0 7.953-3.306 9.314-4.32 1.36-1.011 5.794-4.489 5.794-6.758.002-.176.115-1.03.234-1.934.145-1.098.343-2.595.548-4.362.37-1.244.525-2.718.418-3.983.064-.689.124-1.374.178-2.049h.678a1.2 1.2 0 00.851-.352 1.39 1.39 0 00.31-.483 8.37 8.37 0 004.486-2.828 8.118 8.118 0 001.81-4.947h.402v1.945a.39.39 0 00.393.387.39.39 0 00.394-.387v-5.33a25.301 25.301 0 00-5.697-15.972zm3.232 19.2c0 1.567-.546 3.1-1.535 4.318a7.078 7.078 0 01-3.927 2.424l-.155.015V25.099l.134.014c3.178.718 5.483 3.55 5.483 6.741zm-7.72-1.009c0 2.763-.12 5.751-.355 8.883-.044.605-.095 1.22-.148 1.838a.531.531 0 00-.642.328c-.014.036-.03.07-.044.105.303-4.933.522-11.407.522-13.617 0-2.532-.683-7.19-.977-9.077a1.096 1.096 0 00-.028-.113c.155-.13.31-.259.463-.391.238-.213.48-.421.712-.638l.689-.662c.219-.206.424-.427.62-.655l-.152 1.853c-.146 1.759-.297 3.577-.423 5.359-.22 3.129-.297 5.353-.237 6.787zM21.26 52.95c0-.242-.092-.931-.244-2.073-.07-.516-.149-1.113-.235-1.782.107.123.219.24.336.35 1.313 1.234 3.226 1.86 5.684 1.86 5.064 0 7.452-1.851 8.187-2.57.742.718 3.15 2.57 8.226 2.57 2.32 0 4.166-.637 5.488-1.894.34-.323.629-.686.875-1.073-.122.982-.235 1.837-.327 2.531-.152 1.148-.243 1.84-.243 2.08 0 1.055-2.223 3.475-5.285 5.755-3.368 2.508-6.64 4.066-8.542 4.066-1.863 0-5.073-1.6-8.586-4.28-3.295-2.514-5.334-4.833-5.334-5.54zm27.032-3.957c-1.209 1.149-2.917 1.731-5.078 1.731-.917 0-5.609-.12-7.896-2.488a.456.456 0 00-.66 0c-.558.584-2.772 2.488-7.857 2.488-2.301 0-4.076-.572-5.276-1.7a4.732 4.732 0 01-.9-1.169l-.027-.212h-.086c-.96-1.914-.834-4.337-.645-5.382.127.311.28.611.457.892.727 1.169 1.775 1.873 3.03 2.036.186.027.39.04.606.04.644 0 1.374-.392 2.22-.845 1.201-.644 2.697-1.446 4.52-1.446.614 0 1.228.106 1.828.313.01.036.02.073.036.103.135.305.34.524.563.71.225.183.476.327.741.438a2.787 2.787 0 001.707.158 2.878 2.878 0 001.478-.834c.1-.105.185-.231.26-.366.027-.053.05-.112.07-.172a5.612 5.612 0 011.931-.35c1.823 0 3.319.801 4.52 1.446.847.453 1.578.845 2.222.845.133 0 .27-.006.41-.017 1.21-.105 2.207-.67 2.963-1.675l.038-.055.015-.02a5.76 5.76 0 00.667-1.201c.278 1.577.027 4.942-1.857 6.732zM19.153 24.134l-.01-.105v-.007c-.104-1.137-.219-2.263-.33-3.353-.243-2.38-.452-4.436-.452-5.675 0-1.6 1.394-2.872 2.87-4.22.946-.862 1.924-1.753 2.616-2.797.618-.93 1.31-1.76 2.074-2.494l.154-.06a.386.386 0 00.272-.333c2.787-2.46 6.478-3.704 11.02-3.704 5.526 0 9.072 4.106 11.191 6.56.416.48.774.895 1.075 1.191.69.678 1.813.928 3.338.743.514-.061.993.15 1.281.566.281.407.305.909.064 1.343l-.037.066a.381.381 0 00-.247.439c-.787 1.385-1.528 2.539-2.207 3.433a.318.318 0 00-.031.053c-.06.049-.1.12-.107.202a9.868 9.868 0 01-1.061 1.149l-.687.642c-.232.21-.473.411-.709.617-.192.163-.388.322-.585.48a.283.283 0 00-.077.064 24.704 24.704 0 01-2.358 1.678 17.139 17.139 0 01-3.357 1.635c-1.174.41-2.402.662-3.64.723-2.485.15-4.964-.551-7.157-1.727a22.436 22.436 0 01-3.13-2.054c-1-.76-1.886-1.639-2.96-2.346a.103.103 0 00-.113 0 .099.099 0 00-.027.139c.45.655 1.002 1.214 1.595 1.733l-.444-.025c-2.016-.112-3.867-.22-4.837-.279a1.063 1.063 0 00-1.13.895c-.294 1.885-.977 6.542-.977 9.072 0 2.146.217 9.006.534 14.003a5.271 5.271 0 01-.21-.488.53.53 0 00-.4-.331c-.053-.626-.103-1.241-.147-1.834-.23-3.075-.346-6.012-.346-8.718.088-2.126-.135-4.943-.31-6.877zm-2.221.979l.133-.014V38.61l-.154-.015a7.11 7.11 0 01-3.93-2.424 6.877 6.877 0 01-1.532-4.318c0-3.19 2.305-6.023 5.483-6.741zm.724-.773a.439.439 0 01.026-.069h.89c.173 1.915.387 4.654.3 6.727 0 2.611.109 5.424.32 8.363h-1.518l-.018-.043V24.34zm19.207 17.925l.062.374c.012.078.024.164.032.238a.288.288 0 00-.04.26.694.694 0 01-.041.088 1.478 1.478 0 01-.205.25 2.488 2.488 0 01-1.219.628 2.295 2.295 0 01-1.353-.138 2.558 2.558 0 01-.594-.35 1.397 1.397 0 01-.405-.479c-.013-.021-.014-.04-.02-.059l-.01-.042a.308.308 0 00-.007-.068c0-.018.003-.038.006-.062.015-.111.037-.235.06-.358.048-.246.103-.495.16-.743l.688-2.994a.165.165 0 00-.112-.191.167.167 0 00-.209.106 56.472 56.472 0 00-.89 2.955c-.065.25-.13.5-.188.755l-.044.204a6.168 6.168 0 00-1.833-.283c-1.974 0-3.543.841-4.804 1.517-.774.416-1.443.774-1.936.774-.188 0-.364-.011-.527-.034-.88-.114-1.617-.528-2.207-1.223-.355-5.02-.603-12.718-.603-15.012 0-2.49.678-7.112.97-8.984a.483.483 0 01.509-.403c.971.059 2.823.167 4.84.28l.743.041.48.027a23.13 23.13 0 003.595 2.436 15.885 15.885 0 003.604 1.432c1.26.33 2.576.472 3.881.395a13.628 13.628 0 003.818-.777 17.678 17.678 0 003.47-1.71 23.122 23.122 0 002.077-1.496c.307 1.993.936 6.365.936 8.763 0 2.394-.258 9.808-.6 14.819-.651.86-1.503 1.343-2.53 1.432-.122.01-.244.015-.36.015-.495 0-1.164-.36-1.94-.775-1.26-.675-2.83-1.517-4.803-1.517-.649 0-1.296.106-1.928.314l-.028-.114-.1-.378a26.594 26.594 0 00-.471-1.474.104.104 0 00-.116-.067.103.103 0 00-.084.118l.276 1.51zM51.62 24.272h.672a.41.41 0 01.025.069v14.978l-.018.043h-1.231c.217-2.997.328-5.861.328-8.529-.058-1.397.015-3.547.224-6.561zM9.77 28.626a24.355 24.355 0 014.586-14.262 25.06 25.06 0 018.821-7.65c-.136.189-.27.38-.4.575-.608.914-1.526 1.751-2.414 2.561-1.614 1.472-3.282 2.994-3.282 5.143 0 1.306.213 3.399.46 5.822.073.72.148 1.455.22 2.197h-.132c-.316 0-.615.124-.841.35a1.457 1.457 0 00-.343.571 8.412 8.412 0 00-4.447 2.818 8.105 8.105 0 00-1.816 4.68H9.77v-2.806zm50.433 2.804h-.411a8.119 8.119 0 00-1.817-4.68 8.41 8.41 0 00-4.447-2.817 1.444 1.444 0 00-.343-.572 1.189 1.189 0 00-.783-.347c.11-1.471.233-2.953.353-4.395.066-.789.13-1.549.186-2.26.605-.81 1.254-1.809 1.935-2.976a24.533 24.533 0 015.327 15.242v2.805z"/><path fill="#3F3F3F" d="M42.884 40.068c2.877 0 4.681-1.15 5.517-3.513l.008-.025c.211-.831.513-3.231-.612-4.338-1.624-1.597-8.15-1.227-10.204-.583-.472.148-.822.512-1.039 1.083-.166.435-.24.96-.25 1.5l-.88-.384a1.03 1.03 0 00-.806-.007l-.755.314c-.017-.512-.09-1.008-.248-1.423-.217-.57-.566-.935-1.038-1.083-2.054-.644-8.58-1.014-10.204.583-1.126 1.106-.824 3.507-.612 4.338l.007.025c.836 2.363 2.641 3.512 5.517 3.512 2.973 0 4.77-.853 6.005-2.854.256-.414.51-1.418.566-2.463l.993-.414a.424.424 0 01.335.003l1.073.468c.02.01.04.015.06.02.064 1.017.313 1.982.563 2.386 1.235 2 3.031 2.855 6.004 2.855zm-5.777-7.172c.151-.395.375-.642.665-.733 2.183-.685 8.28-.864 9.607.44.854.84.68 2.896.46 3.774-.278.785-1.121 3.11-4.955 3.11-2.74 0-4.385-.77-5.5-2.576-.333-.54-.762-2.74-.277-4.015zm-4.322 4.015c-1.115 1.805-2.76 2.575-5.5 2.575-3.834 0-4.677-2.324-4.954-3.109-.22-.878-.394-2.935.46-3.774 1.325-1.304 7.423-1.125 9.606-.44.29.09.514.338.665.733.485 1.275.056 3.476-.277 4.015z"/></g></svg>