<svg width="75" height="75" viewBox="0 0 75 75" fill="none" xmlns="http://www.w3.org/2000/svg">
<rect width="75" height="75" rx="15" fill="#2256F2"/>
<path d="M62.7285 35.3273L62.7356 35.3277C63.6607 35.3835 64.3834 36.1492 64.3453 37.0862M62.7285 35.3273L63.8457 37.0659M62.7285 35.3273L62.7214 35.327L59.947 35.2387M62.7285 35.3273L58.1972 36.8089M64.3453 37.0862L63.8457 37.0659M64.3453 37.0862C64.3453 37.0862 64.3452 37.0862 64.3453 37.0862L63.8457 37.0659M64.3453 37.0862C64.3075 38.0146 63.5422 38.7264 62.5952 38.6637M63.8457 37.0659C63.819 37.7213 63.2852 38.2124 62.6204 38.1643M62.5952 38.6637L62.6045 38.664L62.6204 38.1643M62.5952 38.6637L59.8236 38.5755L59.7728 38.5739L59.7233 38.562L59.7094 38.5587C59.5257 38.5149 59.2493 38.449 59.0114 38.3003C58.5817 38.0318 58.1419 37.4775 58.1972 36.8089M62.5952 38.6637C62.5916 38.6635 62.588 38.6632 62.5843 38.663L62.6204 38.1643M62.6204 38.1643L58.1972 36.8089M58.1972 36.8089C58.197 36.813 58.1968 36.8171 58.1966 36.8213L58.6962 36.8416L58.1983 36.7957C58.1979 36.8001 58.1976 36.8045 58.1972 36.8089ZM58.1972 36.8089C58.2415 35.8806 59.0142 35.1865 59.947 35.2387M59.947 35.2387L59.9405 35.2385L59.9246 35.7382L59.9547 35.2391C59.9521 35.239 59.9496 35.2388 59.947 35.2387ZM56.5328 24.9277L56.5253 24.9315L56.5179 24.9355C55.6965 25.3831 55.3951 26.3824 55.8746 27.2084L55.895 27.2435L55.9209 27.2749L55.93 27.286C56.0499 27.4319 56.2303 27.6514 56.4682 27.8C56.896 28.0674 57.5826 28.2194 58.1578 27.8827L60.6011 26.6557L60.6076 26.6525L60.614 26.649C61.4394 26.204 61.7285 25.1957 61.2653 24.3754C60.8109 23.5706 59.8102 23.2562 58.9861 23.6957L56.5328 24.9277ZM39.3338 16.9172L39.3763 16.9273L39.42 16.93C40.3605 16.9867 41.1399 16.2848 41.178 15.3479L41.1783 15.3406L41.1784 15.3333L41.2102 12.5882C41.244 11.6548 40.5228 10.8932 39.6002 10.8376C38.6598 10.7809 37.8803 11.4827 37.8422 12.4197L37.842 12.4197L37.8418 12.4337L37.807 15.1727C37.7563 15.8375 38.194 16.388 38.6219 16.6554C38.8597 16.804 39.136 16.87 39.3197 16.9138L39.3338 16.9172ZM36.7632 55.2398L36.7679 55.2324L36.7723 55.2248C37.1452 54.5786 37.8886 53.8482 39.0146 53.092C40.1248 52.3465 41.5733 51.5982 43.3206 50.896C44.2471 50.6878 45.1212 50.308 45.9467 49.9422L46.1207 49.8687C46.3533 49.8054 46.5254 49.7005 46.6918 49.5714C49.0587 48.284 51.0635 46.4597 52.4845 44.1855C57.0423 36.8916 54.6595 27.1456 47.1868 22.5537C39.7515 17.9088 29.9488 20.0374 25.3908 27.3318C23.97 29.6055 23.172 32.2719 23.1125 35.0152C23.1022 35.1164 23.1056 35.1978 23.108 35.2545C23.1107 35.316 23.1118 35.3415 23.1088 35.3765L23.1087 35.3765L23.1079 35.3889C23.0387 36.5248 23.2159 37.6419 23.4166 38.6665C23.5141 40.4884 23.4674 42.0788 23.2869 43.372C23.1037 44.6847 22.7888 45.6439 22.387 46.2331L22.3814 46.2413L22.3761 46.2498L22.3759 46.2501L22.3756 46.2505L22.3754 46.2508L22.3752 46.2511L22.375 46.2514L22.3748 46.2518L22.3746 46.2521L22.3744 46.2524L22.3742 46.2528L22.374 46.2531L22.3738 46.2534L22.3736 46.2538L22.3734 46.2541L22.3732 46.2544L22.373 46.2548L22.3728 46.2551L22.3725 46.2554L22.3723 46.2558L22.3721 46.2561L22.3719 46.2565L22.3717 46.2568L22.3715 46.2571L22.3713 46.2575L22.371 46.2578L22.3708 46.2582L22.3706 46.2585L22.3704 46.2589L22.3702 46.2592L22.3699 46.2596L22.3697 46.2599L22.3695 46.2603L22.3693 46.2607L22.3691 46.261L22.3688 46.2614L22.3686 46.2617L22.3684 46.2621L22.3682 46.2624L22.3679 46.2628L22.3677 46.2632L22.3675 46.2635L22.3673 46.2639L22.367 46.2643L22.3668 46.2646L22.3666 46.265L22.3663 46.2654L22.3661 46.2657L22.3659 46.2661L22.3657 46.2665L22.3654 46.2668L22.3652 46.2672L22.365 46.2676L22.3647 46.2679L22.3645 46.2683L22.3643 46.2687L22.364 46.2691L22.3638 46.2695L22.3635 46.2698L22.3633 46.2702L22.3631 46.2706L22.3628 46.271L22.3626 46.2714L22.3624 46.2717L22.3621 46.2721L22.3619 46.2725L22.3616 46.2729L22.3614 46.2733L22.3612 46.2737L22.3609 46.2741L22.3607 46.2744L22.3604 46.2748L22.3602 46.2752L22.3599 46.2756L22.3597 46.276L22.3594 46.2764L22.3592 46.2768L22.359 46.2772L22.3587 46.2776L22.3585 46.278L22.3582 46.2784L22.358 46.2788L22.3577 46.2792L22.3575 46.2796L22.3572 46.28L22.357 46.2804L22.3567 46.2808L22.3565 46.2812L22.3562 46.2816L22.356 46.282L22.3557 46.2824L22.3555 46.2828L22.3552 46.2832L22.3549 46.2836L22.3547 46.284L22.3544 46.2844L22.3542 46.2848L22.3539 46.2852L22.3537 46.2856L22.3534 46.2861L22.3532 46.2865L22.3529 46.2869L22.3526 46.2873L22.3524 46.2877L22.3521 46.2881L22.3519 46.2885L22.3516 46.289L22.3513 46.2894L22.3511 46.2898L22.3508 46.2902L22.3506 46.2906L22.3503 46.291L22.35 46.2915L22.3498 46.2919L22.3495 46.2923L22.3492 46.2927L22.349 46.2931L22.3487 46.2936L22.3485 46.294L22.3482 46.2944L22.3479 46.2948L22.3477 46.2953L22.3474 46.2957L22.3471 46.2961L22.3469 46.2965L22.3466 46.297L22.3463 46.2974L22.346 46.2978L22.3458 46.2983L22.3455 46.2987L22.3452 46.2991L22.345 46.2996L22.3447 46.3L22.3444 46.3004L22.3442 46.3009L22.3439 46.3013L22.3436 46.3017L22.3433 46.3022L22.3431 46.3026L22.3428 46.303L22.3425 46.3035L22.3423 46.3039L22.342 46.3043L22.3417 46.3048L22.3414 46.3052L22.3412 46.3057L22.3409 46.3061L22.3406 46.3065L22.3403 46.307L22.3401 46.3074L22.3398 46.3079L22.3395 46.3083L22.3392 46.3087L22.339 46.3092L22.3387 46.3096L22.3384 46.3101L22.3381 46.3105L22.3378 46.311L22.3376 46.3114L22.3373 46.3118L22.337 46.3123L22.3367 46.3127L22.3365 46.3132L22.3362 46.3136L22.3359 46.3141L22.3356 46.3145L22.3353 46.315L22.3351 46.3154L22.3348 46.3159L22.3345 46.3163L22.3342 46.3168L22.3339 46.3172L22.3337 46.3177L22.3334 46.3181L22.3331 46.3186L22.3328 46.319L22.3325 46.3195L22.3322 46.3199L22.332 46.3204L22.3317 46.3208L22.3314 46.3213L22.3311 46.3217L22.3308 46.3222L22.3305 46.3227L22.3303 46.3231L22.33 46.3236L22.3297 46.324L22.3294 46.3245L22.3291 46.3249L22.3288 46.3254L22.3285 46.3259L22.3283 46.3263L22.328 46.3268L22.3277 46.3272L22.3274 46.3277L22.3271 46.3281L22.3268 46.3286L22.3265 46.3291L22.3263 46.3295L22.326 46.33L22.3257 46.3304L22.3254 46.3309L22.3251 46.3314L22.3248 46.3318L22.3245 46.3323L22.3242 46.3327L22.324 46.3332L22.3237 46.3337L22.3234 46.3341L22.3231 46.3346L22.3228 46.335L22.3225 46.3355L22.3222 46.336L22.3219 46.3364L22.3216 46.3369L22.3214 46.3374L22.3211 46.3378L22.3208 46.3383L22.3205 46.3387L22.3202 46.3392L22.3199 46.3397L22.3196 46.3401L22.3193 46.3406L22.319 46.3411L22.3187 46.3415L22.3185 46.342L22.3182 46.3425L22.3179 46.3429L22.3176 46.3434L22.3173 46.3439L22.317 46.3443L22.3167 46.3448L22.3164 46.3453L22.3161 46.3457L22.3158 46.3462L22.3155 46.3467L22.3153 46.3471L22.315 46.3476L22.3147 46.3481L22.3144 46.3485L22.3141 46.349L22.3138 46.3495L22.3135 46.3499L22.3132 46.3504L22.3129 46.3509L22.3126 46.3513L22.3123 46.3518L22.312 46.3522L22.3118 46.3527L22.3115 46.3532L22.3112 46.3537L22.3109 46.3541L22.3106 46.3546L22.3103 46.3551L22.31 46.3555L22.3097 46.356L22.3094 46.3565L22.3091 46.3569L22.3088 46.3574L22.3085 46.3579L22.3083 46.3583L22.308 46.3588L22.3077 46.3593L22.3074 46.3597L22.3071 46.3602L22.3068 46.3607L22.3065 46.3611L22.3062 46.3616L22.3059 46.3621L22.3056 46.3625L22.3053 46.363L22.305 46.3635L22.3048 46.3639L22.3045 46.3644L22.3042 46.3649L22.3039 46.3653L22.3036 46.3658L22.3033 46.3663L22.303 46.3667L22.3027 46.3672L22.3024 46.3677L22.3021 46.3681L22.3018 46.3686L22.3015 46.3691L22.3013 46.3695L22.301 46.37L22.3007 46.3704L22.3004 46.3709L22.3001 46.3714L22.2998 46.3718L22.2995 46.3723L22.2992 46.3728L22.2989 46.3732L22.2986 46.3737L22.2984 46.3742L22.2981 46.3746L22.2978 46.3751L22.2975 46.3756L22.2972 46.376L22.2969 46.3765L22.2966 46.3769L22.2963 46.3774L22.296 46.3779L22.2957 46.3783L22.2955 46.3788L22.2952 46.3793L22.2949 46.3797L22.2946 46.3802L22.2943 46.3806L22.294 46.3811L22.2937 46.3816L22.2934 46.382L22.2932 46.3825L22.2929 46.383L22.2926 46.3834L22.2923 46.3839L22.292 46.3843L22.2917 46.3848L22.2914 46.3852L22.2911 46.3857L22.2909 46.3862L22.2906 46.3866L22.2903 46.3871L22.29 46.3875L22.2897 46.388L22.2894 46.3885L22.2891 46.3889L22.2889 46.3894L22.2886 46.3898L22.2883 46.3903L22.288 46.3907L22.2877 46.3912L22.2874 46.3916L22.2871 46.3921L22.2869 46.3926L22.2866 46.393L22.2863 46.3935L22.286 46.3939L22.2857 46.3944L22.2854 46.3948L22.2852 46.3953L22.2849 46.3957L22.2846 46.3962L22.2843 46.3966L22.284 46.3971L22.2838 46.3975L22.2835 46.398L22.2832 46.3984L22.2829 46.3989L22.2826 46.3993L22.2824 46.3998L22.2821 46.4002L22.2818 46.4007L22.2815 46.4011L22.2812 46.4016L22.281 46.402L22.2807 46.4024L22.2804 46.4029L22.2801 46.4033L22.2798 46.4038L22.2796 46.4042L22.2793 46.4047L22.279 46.4051L22.2787 46.4056L22.2785 46.406L22.2782 46.4064L22.2779 46.4069L22.2776 46.4073L22.2774 46.4078L22.2771 46.4082L22.2768 46.4086L22.2765 46.4091L22.2763 46.4095L22.276 46.41L22.2757 46.4104L22.2754 46.4108L22.2752 46.4113L22.2749 46.4117L22.2746 46.4121L22.2744 46.4126L22.2741 46.413L22.2738 46.4134L22.2735 46.4139L22.2733 46.4143L22.273 46.4147L22.2727 46.4152L22.2725 46.4156L22.2722 46.416L22.2719 46.4164L22.2717 46.4169L22.2714 46.4173L22.2711 46.4177L22.2709 46.4182L22.2706 46.4186L22.2703 46.419L22.2701 46.4194L22.2698 46.4199L22.2695 46.4203L22.2693 46.4207L22.269 46.4211L22.2687 46.4216L22.2685 46.422L22.2682 46.4224L22.268 46.4228L22.2677 46.4232L22.2674 46.4237L22.2672 46.4241L22.2669 46.4245L22.2666 46.4249L22.2664 46.4253L22.2661 46.4257L22.2659 46.4262L22.2656 46.4266L22.2653 46.427L22.2651 46.4274L22.2648 46.4278L22.2646 46.4282L22.2643 46.4286L22.2641 46.429L22.2638 46.4294L22.2636 46.4299L22.2633 46.4303L22.263 46.4307L22.2628 46.4311L22.2625 46.4315L22.2623 46.4319L22.262 46.4323L22.2618 46.4327L22.2615 46.4331L22.2613 46.4335L22.261 46.4339L22.2608 46.4343L22.2605 46.4347L22.2603 46.4351L22.26 46.4355L22.2598 46.4359L22.2595 46.4363L22.2593 46.4367L22.259 46.4371L22.2588 46.4375L22.2585 46.4379L22.2583 46.4383L22.2581 46.4386L22.2578 46.439L22.2576 46.4394L22.2573 46.4398L22.2571 46.4402L22.2568 46.4406L22.2566 46.441L22.2564 46.4414L22.2561 46.4418L22.2559 46.4421L22.2556 46.4425L22.2554 46.4429L22.2552 46.4433L22.2549 46.4437L22.2547 46.444L22.2545 46.4444L22.2542 46.4448L22.254 46.4452L22.2537 46.4456L22.2535 46.4459L22.2533 46.4463L22.253 46.4467L22.2528 46.447L22.2526 46.4474L22.2523 46.4478L22.2521 46.4482L22.2519 46.4485L22.2517 46.4489L22.2514 46.4493L22.2512 46.4496L22.251 46.45L22.2507 46.4504L22.2505 46.4507L22.2503 46.4511L22.2501 46.4514L22.2498 46.4518L22.2496 46.4522L22.2494 46.4525L22.2492 46.4529L22.2489 46.4532L22.2487 46.4536L22.2485 46.4539L22.2483 46.4543L22.2481 46.4546L22.2478 46.455L22.2476 46.4553L22.2474 46.4557L22.2472 46.456L22.247 46.4564L22.2468 46.4567L22.2465 46.4571L22.2463 46.4574L22.2461 46.4578L22.2459 46.4581L22.2457 46.4584L22.2455 46.4588L22.2453 46.4591L22.2451 46.4595L22.2448 46.4598L22.2446 46.4601L22.2444 46.4605L22.2442 46.4608L22.244 46.4611L22.2438 46.4615L22.2436 46.4618L22.2434 46.4621L22.2432 46.4625L22.243 46.4628L22.2428 46.4631L22.2426 46.4634L22.2424 46.4638L22.2422 46.4641L22.2418 46.4647L22.2414 46.4654L22.241 46.466L22.2406 46.4666L22.2402 46.4673L22.2398 46.4679L22.2394 46.4685L22.239 46.4692L22.2386 46.4698L22.2382 46.4704L22.2378 46.4711L22.2374 46.4717L22.237 46.4723L22.2366 46.4729L22.2362 46.4736L22.2359 46.4742L22.2355 46.4748L22.2351 46.4754L22.2347 46.476L22.2343 46.4767L22.2339 46.4773L22.2335 46.4779L22.2332 46.4785L22.2328 46.4791L22.2324 46.4797L22.232 46.4803L22.2316 46.4809L22.2313 46.4815L22.2309 46.4821L22.2305 46.4828L22.2301 46.4834L22.2297 46.484L22.2294 46.4846L22.229 46.4852L22.2286 46.4858L22.2282 46.4864L22.2279 46.487L22.2275 46.4875L22.2271 46.4881L22.2268 46.4887L22.2264 46.4893L22.226 46.4899L22.2257 46.4905L22.2253 46.4911L22.2249 46.4917L22.2246 46.4923L22.2242 46.4928L22.2238 46.4934L22.2235 46.494L22.2231 46.4946L22.2227 46.4952L22.2224 46.4958L22.222 46.4963L22.2217 46.4969L22.2213 46.4975L22.2209 46.4981L22.2206 46.4986L22.2202 46.4992L22.2199 46.4998L22.2195 46.5003L22.2192 46.5009L22.2188 46.5015L22.2184 46.5021L22.2181 46.5026L22.2177 46.5032L22.2174 46.5037L22.217 46.5043L22.2167 46.5049L22.2163 46.5054L22.216 46.506L22.2156 46.5066L22.2153 46.5071L22.2149 46.5077L22.2146 46.5082L22.2142 46.5088L22.2139 46.5093L22.2135 46.5099L22.2132 46.5104L22.2129 46.511L22.2125 46.5115L22.2122 46.5121L22.2118 46.5126L22.2115 46.5132L22.2111 46.5137L22.2108 46.5143L22.2105 46.5148L22.2101 46.5154L22.2098 46.5159L22.2094 46.5165L22.2091 46.517L22.2088 46.5175L22.2084 46.5181L22.2081 46.5186L22.2078 46.5192L22.2074 46.5197L22.2071 46.5202L22.2068 46.5208L22.2064 46.5213L22.2061 46.5218L22.2058 46.5224L22.2054 46.5229L22.2051 46.5234L22.2048 46.524L22.2044 46.5245L22.2041 46.525L22.2038 46.5255L22.2034 46.5261L22.2031 46.5266L22.2028 46.5271L22.2025 46.5276L22.2021 46.5282L22.2018 46.5287L22.2015 46.5292L22.2011 46.5297L22.2008 46.5303L22.2005 46.5308L22.2002 46.5313L22.1998 46.5318L22.1995 46.5323L22.1992 46.5328L22.1989 46.5334L22.1986 46.5339L22.1982 46.5344L22.1979 46.5349L22.1976 46.5354L22.1973 46.5359L22.197 46.5364L22.1966 46.537L22.1963 46.5375L22.196 46.538L22.1957 46.5385L22.1954 46.539L22.195 46.5395L22.1947 46.54L22.1944 46.5405L22.1941 46.541L22.1938 46.5415L22.1935 46.542L22.1931 46.5425L22.1928 46.543L22.1925 46.5435L22.1922 46.544L22.1919 46.5445L22.1916 46.545L22.1913 46.5455L22.1909 46.546L22.1906 46.5465L22.1903 46.547L22.19 46.5475L22.1897 46.548L22.1894 46.5485L22.1891 46.549L22.1888 46.5495L22.1885 46.55L22.1882 46.5505L22.1878 46.551L22.1875 46.5515L22.1872 46.552L22.1869 46.5525L22.1866 46.553L22.1863 46.5535L22.186 46.554L22.1857 46.5545L22.1854 46.5549L22.1851 46.5554L22.1848 46.5559L22.1845 46.5564L22.1842 46.5569L22.1839 46.5574L22.1836 46.5579L22.1833 46.5584L22.1829 46.5589L22.1826 46.5593L22.1823 46.5598L22.182 46.5603L22.1817 46.5608L22.1814 46.5613L22.1811 46.5618L22.1808 46.5622L22.1805 46.5627L22.1802 46.5632L22.1799 46.5637L22.1796 46.5642L22.1793 46.5647L22.179 46.5651L22.1787 46.5656L22.1784 46.5661L22.1781 46.5666L22.1778 46.5671L22.1775 46.5675L22.1772 46.568L22.1769 46.5685L22.1766 46.569L22.1763 46.5694L22.176 46.5699L22.1757 46.5704L22.1754 46.5709L22.1751 46.5714L22.1748 46.5718L22.1745 46.5723L22.1742 46.5728L22.1739 46.5733L22.1737 46.5737L22.1734 46.5742L22.1731 46.5747L22.1728 46.5752L22.1725 46.5756L22.1722 46.5761L22.1719 46.5766L22.1716 46.577L22.1713 46.5775L22.171 46.578L22.1707 46.5785L22.1704 46.5789L22.1701 46.5794L22.1698 46.5799L22.1695 46.5804L22.1692 46.5808L22.1689 46.5813L22.1686 46.5818L22.1683 46.5822L22.168 46.5827L22.1677 46.5832L22.1675 46.5836L22.1672 46.5841L22.1669 46.5846L22.1666 46.5851L22.1663 46.5855L22.166 46.586L22.1657 46.5865L22.1654 46.5869L22.1651 46.5874L22.1648 46.5879L22.1645 46.5883L22.1642 46.5888L22.1639 46.5893L22.1636 46.5897L22.1634 46.5902L22.1631 46.5907L22.1628 46.5911L22.1625 46.5916L22.1622 46.5921L22.1619 46.5925L22.1616 46.593L22.1613 46.5935L22.161 46.594L22.1607 46.5944L22.1604 46.5949L22.1601 46.5954L22.1598 46.5958L22.1596 46.5963L22.1593 46.5968L22.159 46.5972L22.1587 46.5977L22.1584 46.5982L22.1581 46.5986L22.1578 46.5991L22.1575 46.5996L22.1572 46.6L22.1569 46.6005L22.1566 46.601L22.1563 46.6014L22.156 46.6019L22.1558 46.6024L22.1555 46.6028L22.1552 46.6033L22.1549 46.6038L22.1546 46.6042L22.1543 46.6047L22.154 46.6052L22.1537 46.6056L22.1534 46.6061L22.1531 46.6066L22.1528 46.607L22.1525 46.6075L22.1523 46.608L22.152 46.6084L22.1517 46.6089L22.1514 46.6094L22.1511 46.6098L22.1508 46.6103L22.1505 46.6108L22.1502 46.6113L22.1499 46.6117L22.1496 46.6122L22.1493 46.6127L22.149 46.6131L22.1487 46.6136L22.1484 46.6141L22.1481 46.6145L22.1479 46.615L22.1476 46.6155L22.1473 46.616L22.147 46.6164L22.1467 46.6169L22.1464 46.6174L22.1461 46.6178L22.1458 46.6183L22.1455 46.6188L22.1452 46.6193L22.1449 46.6197L22.1446 46.6202L22.1443 46.6207L22.144 46.6211L22.1437 46.6216L22.1434 46.6221L22.1431 46.6226L22.1428 46.623L22.1425 46.6235L22.1422 46.624L22.1419 46.6245L22.1416 46.6249L22.1414 46.6254L22.1411 46.6259L22.1408 46.6264L22.1405 46.6268L22.1402 46.6273L22.1399 46.6278L22.1396 46.6283L22.1393 46.6288L22.139 46.6292L22.1387 46.6297L22.1384 46.6302L22.1381 46.6307L22.1378 46.6312L22.1375 46.6316L22.1372 46.6321L22.1369 46.6326L22.1366 46.6331L22.1363 46.6336L22.136 46.634L22.1357 46.6345L22.1354 46.635L22.1351 46.6355L22.1348 46.636L22.1345 46.6365L22.1342 46.6369L22.1338 46.6374L22.1335 46.6379L22.1332 46.6384L22.1329 46.6389L22.1326 46.6394L22.1323 46.6399L22.132 46.6403L22.1317 46.6408L22.1314 46.6413L22.1311 46.6418L22.1308 46.6423L22.1305 46.6428L22.1302 46.6433L22.1299 46.6438L22.1296 46.6443L22.1293 46.6448L22.129 46.6453L22.1287 46.6457L22.1283 46.6462L22.128 46.6467L22.1277 46.6472L22.1274 46.6477L22.1271 46.6482L22.1268 46.6487L22.1265 46.6492L22.1262 46.6497L22.1259 46.6502L22.1256 46.6507L22.1252 46.6512L22.1249 46.6517L22.1246 46.6522L22.1243 46.6527L22.124 46.6532L22.1237 46.6537L22.1234 46.6542L22.123 46.6547L22.1227 46.6552L22.1224 46.6557L22.1221 46.6562L22.1218 46.6567L22.1215 46.6572L22.1211 46.6578L22.1208 46.6583L22.1205 46.6588L22.1202 46.6593L22.1199 46.6598L22.1196 46.6603L22.1192 46.6608L22.1189 46.6613L22.1186 46.6618L22.1183 46.6623L22.118 46.6629L22.1176 46.6634L22.1173 46.6639L22.117 46.6644L22.1167 46.6649L22.1163 46.6654L22.116 46.666L22.1157 46.6665L22.1154 46.667L22.115 46.6675L22.1147 46.668L22.1144 46.6686L22.1141 46.6691L22.1137 46.6696L22.1134 46.6701L22.1131 46.6707L22.1128 46.6712L22.1124 46.6717L22.1121 46.6722L22.1118 46.6728L22.1114 46.6733L22.1111 46.6738L22.1108 46.6744L22.1104 46.6749L22.1101 46.6754L22.1098 46.676L22.1094 46.6765L22.1091 46.677L22.1088 46.6776L22.1084 46.6781L22.1081 46.6786L22.1078 46.6792L22.1074 46.6797L22.1071 46.6803L22.1067 46.6808L22.1064 46.6813L22.1061 46.6819L22.1057 46.6824L22.1054 46.683L22.105 46.6835L22.1047 46.6841L22.1044 46.6846L22.104 46.6852L22.1037 46.6857L22.1033 46.6863L22.103 46.6868L22.1026 46.6874L22.1023 46.6879L22.102 46.6885L22.1016 46.689L22.1013 46.6896L22.1009 46.6901L22.1006 46.6907L22.1002 46.6913L22.0999 46.6918L22.0995 46.6924L22.0992 46.6929L22.0988 46.6935L22.0985 46.6941L22.0981 46.6946L22.0977 46.6952L22.0974 46.6958L22.097 46.6963L22.0967 46.6969L22.0963 46.6975L22.096 46.698L22.0956 46.6986L22.0953 46.6992L22.0949 46.6998L22.0945 46.7003L22.0942 46.7009L22.0938 46.7015L22.0935 46.7021L22.0931 46.7027L22.0927 46.7032L22.0924 46.7038L22.092 46.7044L22.0916 46.705L22.0913 46.7056L22.0909 46.7062L22.0905 46.7067L22.0902 46.7073L22.0898 46.7079L22.0894 46.7085L22.0891 46.7091L22.0887 46.7097L22.0883 46.7103L22.0879 46.7109L22.0876 46.7115L22.0872 46.7121L22.0868 46.7127L22.0864 46.7133L22.0861 46.7139L22.0857 46.7145L22.0853 46.7151L22.0849 46.7157L22.0846 46.7163L22.0842 46.7169L22.0838 46.7175L22.0834 46.7181L22.083 46.7188L22.0826 46.7194L22.0823 46.72L22.0819 46.7206L22.0815 46.7212L22.0811 46.7218L22.0807 46.7225L22.0803 46.7231L22.0799 46.7237L22.0796 46.7243L22.0792 46.7249L22.0788 46.7256L22.0784 46.7262L22.078 46.7268L22.0776 46.7275L22.0772 46.7281L22.0768 46.7287L22.0764 46.7293L22.076 46.73L22.0756 46.7306L22.0752 46.7313L22.0748 46.7319L22.0744 46.7325L22.074 46.7332L19.1811 51.3628C17.7892 53.5904 18.4776 56.5989 20.7975 58.0485L26.9067 61.8659C29.1621 63.2753 32.193 62.6786 33.6244 60.388L36.5173 55.7583C36.5949 55.6342 36.6452 55.5054 36.677 55.4236C36.6807 55.414 36.6841 55.4051 36.6873 55.3968C36.6997 55.3648 36.7084 55.3422 36.7176 55.3206C36.7256 55.3015 36.7298 55.2936 36.7302 55.2927L36.7632 55.2398ZM26.4538 35.4606L26.4836 35.4129L26.4868 35.2759C26.5388 33.0718 27.1419 30.9325 28.3026 29.075C31.8842 23.3432 39.5557 21.6528 45.4451 25.3329C51.3346 29.013 53.1782 36.6492 49.5966 42.381C48.43 44.2479 46.8253 45.7562 44.9163 46.7082L44.832 46.7502C44.8285 46.7519 44.8249 46.7536 44.8213 46.7554C44.8174 46.7574 44.8134 46.7594 44.8095 46.7615L44.7901 46.7711L44.7891 46.7727C44.767 46.7855 44.7446 46.8005 44.7225 46.8179C44.7141 46.8216 44.7055 46.8256 44.6966 46.83C44.6609 46.8477 44.624 46.8708 44.5879 46.9005C43.9522 47.248 43.2169 47.5306 42.5 47.6901C42.4919 47.6902 42.4795 47.6903 42.4615 47.6907C42.4296 47.6913 42.3407 47.6937 42.2411 47.7347C42.2036 47.7501 42.169 47.7691 42.1374 47.7908C39.7238 48.764 36.7457 50.2429 34.9271 52.1655L25.9989 46.5865C26.753 44.5624 26.9935 41.7963 26.7731 38.3359L26.7703 38.2922L26.76 38.2496L26.7192 38.0818C26.5551 37.2246 26.4647 36.3478 26.4538 35.4606ZM29.1135 14.3265L29.1102 14.3202L29.1067 14.314C28.6528 13.5103 27.6517 13.186 26.8196 13.6387C26.0005 14.081 25.7003 15.0803 26.1659 15.906L27.4545 18.3476C27.6137 18.6891 27.8897 18.8607 28.0449 18.9572C28.0517 18.9614 28.0582 18.9655 28.0645 18.9694C28.4998 19.2414 29.1843 19.3845 29.762 19.0473C30.5676 18.5963 30.8691 17.6042 30.4091 16.7814L29.1135 14.3265ZM48.9859 19.9163C49.7616 20.401 50.7799 20.1902 51.2683 19.4086L52.7132 17.0963C53.2015 16.3148 52.9446 15.3071 52.1689 14.8224C51.3933 14.3377 50.3749 14.5485 49.8865 15.33L48.4543 17.6221C47.8687 18.3989 48.189 19.4183 48.9859 19.9163ZM22.0223 23.3623L19.6562 21.8837C18.8805 21.399 17.8621 21.6098 17.3738 22.3914C16.8854 23.1729 17.1424 24.1806 17.918 24.6653L20.2842 26.1439C21.0599 26.6286 22.0782 26.4178 22.5666 25.6362C23.055 24.8547 22.798 23.847 22.0223 23.3623ZM60.08 47.1433L57.7138 45.6648C56.9382 45.1801 55.9198 45.3909 55.4314 46.1724C54.9431 46.954 55.2 47.9617 55.9757 48.4464L58.3418 49.9249C59.1175 50.4096 60.1359 50.1988 60.6242 49.4173C61.1126 48.6357 60.8557 47.628 60.08 47.1433ZM23.5063 50.8557L24.6918 48.9585L33.3781 54.3864L32.2314 56.3078L23.5063 50.8557ZM22.2068 52.9353L30.8846 58.3578L30.6907 58.6681C30.2004 59.25 29.3721 59.3861 28.7186 58.9778L22.6043 55.1571C21.9472 54.7466 21.7085 53.9455 22.0137 53.2443L22.2068 52.9353Z" fill="#F2E307" stroke="#F2E307"/>
</svg>
