<?xml version="1.0" encoding="UTF-8"?>
<svg width="252px" height="253px" viewBox="0 0 252 253" version="1.1" xmlns="http://www.w3.org/2000/svg" xmlns:xlink="http://www.w3.org/1999/xlink">
    <!-- Generator: Sketch 58 (84663) - https://sketch.com -->
    <title>adventure__coding</title>
    <desc>Created with Sketch.</desc>
    <defs>
        <path d="M126,0.777578121 C195.587878,0.777578121 252,57.1896996 252,126.777578 C252,196.365457 195.587878,252.777578 126,252.777578 C56.4121215,252.777578 0,196.365457 0,126.777578 C0,57.1896996 56.4121215,0.777578121 126,0.777578121 Z" id="path-1"></path>
    </defs>
    <g id="Round-3" stroke="none" stroke-width="1" fill="none" fill-rule="evenodd">
        <g id="Home---Desktop" transform="translate(-594.000000, -1182.000000)">
            <g id="Hero" transform="translate(-27.000000, 198.000000)">
                <g id="Journey" transform="translate(127.000000, 822.000000)">
                    <g id="Col-2" transform="translate(448.000000, 162.000000)">
                        <g id="Group-3" transform="translate(46.000000, 0.000000)">
                            <mask id="mask-2" fill="white">
                                <use xlink:href="#path-1"></use>
                            </mask>
                            <use id="Mask" fill-opacity="0" fill="#D0021B" xlink:href="#path-1"></use>
                            <circle id="Oval-16" fill="#4CE8E3" mask="url(#mask-2)" cx="126" cy="126.777578" r="126"></circle>
                            <g id="ghop1" mask="url(#mask-2)">
                                <g transform="translate(12.000000, 27.777578)">
                                    <path d="M206.123064,53.9784366 L196.145939,110.090843 L136.42438,110.090843 L136.42438,118.644932 L201.531905,118.644932 L211.832664,60.7937858 C212.464068,57.2401586 209.730631,53.9784366 206.123064,53.9784366" id="Fill-9" stroke="none" fill="#FFFFFF" fill-rule="evenodd"></path>
                                    <polygon id="Fill-46" stroke="none" fill="#00496E" fill-rule="evenodd" points="204.757234 264.595729 214.902522 264.595729 214.902522 122.203159 204.757234 122.203159"></polygon>
                                    <polygon id="Fill-47" stroke="none" fill="#005986" fill-rule="evenodd" points="123.742373 129.846264 359.922142 129.846264 359.922142 118.128814 123.742373 118.128814"></polygon>
                                    <polyline id="Stroke-11" stroke="#03324B" stroke-width="1.8" fill="none" points="79.6447159 164.62966 126.915889 161.632873 132.351035 259.754229 140.021475 259.754229"></polyline>
                                    <polyline id="Stroke-13" stroke="#03324B" stroke-width="1.8" fill="none" points="75.4942698 173.260532 116.327666 173.260532 110.860792 259.456613 119.267341 259.456613"></polyline>
                                    <path d="M45.0714142,79.3476854 L45.0714142,79.3476854 C43.2295566,87.2370549 46.6848244,95.124838 53.1210142,99.2813125 C55.9068041,101.081923 59.2668854,101.773611 63.70416,98.2993058 L156.277733,97.7916447 L161.982574,110.48317" id="Stroke-15" stroke="#03324B" stroke-width="1.8" fill="none"></path>
                                    <path d="M47.5932203,125.891634 C47.5932203,133.993586 52.7523254,140.889844 59.9658712,143.472569 C63.0879864,144.59101 66.5178712,144.500583 69.7431051,143.727986 L118.94678,115.864438 L129.347117,115.864438" id="Stroke-21" stroke="#042433" stroke-width="1.58644068" fill="none"></path>
                                    <path d="M44.0906766,150.847456 L32.0305546,121.796555 C21.242758,95.8074834 38.9680597,66.1584936 67.0734427,64.7338698 C67.8079647,64.6957953 68.5472461,64.6783444 69.2912868,64.6783444 C70.0353275,64.6783444 70.7730224,64.6957953 71.5075444,64.7338698 C99.6335512,66.1584936 117.347748,95.8598359 106.494907,121.845734 L94.3792597,150.847456 L44.0906766,150.847456 Z" id="Fill-17" stroke="none" fill="#C0FA96" fill-rule="evenodd"></path>
                                    <path d="M44.2099769,150.847456 C44.5938956,164.465463 55.6561464,175.392866 69.280499,175.392866 C82.9032651,175.392866 93.9639295,164.465463 94.3478481,150.847456 L44.2099769,150.847456 Z" id="Fill-19" stroke="none" fill="#C0FA96" fill-rule="evenodd"></path>
                                    <path d="M46.947539,104.239574 L46.947539,104.239574 C46.947539,112.341527 52.1066441,119.237784 59.3201898,121.82051 C62.4423051,122.938951 65.8721898,122.848523 69.0974237,122.075927 L140.963186,104.042856 L149.71082,111.483262" id="Stroke-21" stroke="#03324B" stroke-width="1.8" fill="none"></path>
                                    <path d="M47.5932203,125.891634 C47.5932203,133.993586 52.7523254,140.889844 59.9658712,143.472569 C63.0879864,144.59101 66.5178712,144.500583 69.7431051,143.727986 L118.94678,115.864438 L129.347117,115.864438" id="Stroke-21" stroke="#03324B" stroke-width="1.8" fill="none"></path>
                                    <path d="M72.2560515,4.64552542 C72.6939092,1.86449492 75.3274007,-0.0503389831 78.1068447,0.385932203 C80.8862888,0.825376271 82.8027092,3.45728136 82.3648515,6.23831186 L71.1978956,77.1046169" id="Stroke-25" stroke="#03324B" stroke-width="1.5" fill="none"></path>
                                    <path d="M86.6686359,8.05743458 C87.1064936,5.27640407 89.7399851,3.36157017 92.5194292,3.79784136 C95.2988732,4.23728542 97.2152936,6.86919051 96.7774359,9.65022102 L85.61048,80.5165261" id="Stroke-27" stroke="#03324B" stroke-width="1.5" fill="none"></path>
                                    <g id="chair" stroke="none" stroke-width="1" fill="none" fill-rule="evenodd" transform="translate(22.146712, 98.099824)">
                                        <polygon id="Fill-41" fill="#005986" points="-3.55271368e-14 80.3738441 10.1452881 80.3738441 10.1452881 7.10542736e-15 -3.55271368e-14 7.10542736e-15"></polygon>
                                        <polygon id="Fill-43" fill="#00496E" points="-3.55271368e-14 163.02899 10.1452881 163.02899 10.1452881 82.6551458 -3.55271368e-14 82.6551458"></polygon>
                                        <polygon id="Fill-44" fill="#00496E" points="70.2285559 163.02899 80.3738441 163.02899 80.3738441 82.6551458 70.2285559 82.6551458"></polygon>
                                        <polygon id="Fill-45" fill="#005986" points="-2.84217094e-14 85.4456949 80.3738441 85.4456949 80.3738441 75.3004068 -2.84217094e-14 75.3004068"></polygon>
                                    </g>
                                    <path d="M51.5612258,68.343181 C51.5612258,68.343181 33.5249817,78.1426251 30.1585546,94.4797912 C23.7731308,125.466151 0.000317288135,211.60512 0.000317288135,211.60512 C28.1279105,211.032415 54.4882088,196.088144 69.2801817,171.702964 C99.9222834,89.2968895 59.6679376,74.628659 51.5612258,68.343181" id="Fill-23" stroke="none" fill="#3BC53E" fill-rule="evenodd"></path>
                                    <path d="M56.7216118,54.3050847 C52.439065,58.3521323 49.3952715,63.7726984 48.4069915,70.0440566 C46.0315801,85.1105625 56.3227605,99.2514067 71.3892664,101.625457 C86.4584948,103.999507 100.596616,93.7096877 102.972028,78.6418206 C103.958946,72.3718236 102.729722,66.2774302 99.9010088,61.1086984 L56.7216118,54.3050847 Z" id="Fill-29-Copy" stroke="#309F32" stroke-width="1.58644068" fill="none"></path>
                                    <path d="M56.566922,46.4212678 C51.5759797,51.1377559 48.0286983,57.4549627 46.8769424,64.7636949 C44.1086034,82.3224203 56.1020949,98.8023661 73.6608203,101.569119 C91.2227186,104.335871 107.699492,92.3439661 110.467831,74.7836542 C111.618,67.4765085 110.185444,60.3740136 106.88882,54.3502983 L56.566922,46.4212678 Z" id="Fill-29" stroke="none" fill="#3BC53E" fill-rule="evenodd"></path>
                                    <path d="M64.7594603,58.2032868 C63.7203417,64.7981207 57.5300502,69.3020258 50.9352163,68.2629071 C44.3387959,67.2253749 39.8348908,61.0334969 40.8740095,54.4386631 C41.9147146,47.8438292 48.1034197,43.3383376 54.6982536,44.3774563 C61.2930875,45.4165749 65.798579,51.6068664 64.7594603,58.2032868" id="Fill-31" stroke="none" fill="#FFFFFF" fill-rule="evenodd"></path>
                                    <path d="M55.3755051,56.7237722 C55.1518169,58.1372908 53.8255525,59.1018468 52.4136203,58.8797451 C51.0001017,58.6576434 50.0355458,57.331379 50.2576475,55.9178603 C50.4797492,54.5043417 51.8060136,53.5381993 53.2211186,53.7618875 C54.6330508,53.9839892 55.5991932,55.3102536 55.3755051,56.7237722" id="Fill-33" stroke="none" fill="#042433" fill-rule="evenodd"></path>
                                    <path d="M119.353643,66.8063959 C118.314525,73.4012298 112.124233,77.9067214 105.529399,76.8676027 C98.932979,75.8284841 94.4290739,69.6381925 95.4681925,63.0417722 C96.5088976,56.4469383 102.697603,51.9430332 109.292437,52.9805654 C115.888857,54.0196841 120.392762,60.2099756 119.353643,66.8063959" id="Fill-35" stroke="none" fill="#FFFFFF" fill-rule="evenodd"></path>
                                    <path d="M109.969847,65.3268814 C109.747745,66.7419864 108.421481,67.7065424 107.007962,67.4828542 C105.594443,67.2607525 104.629887,65.9344881 104.851989,64.5209695 C105.074091,63.1074508 106.401942,62.1413085 107.81546,62.3649966 C109.227393,62.5870983 110.193535,63.9133627 109.969847,65.3268814" id="Fill-37" stroke="none" fill="#042433" fill-rule="evenodd"></path>
                                    <path d="M92.3252949,60.7983864 C91.2861763,67.3932203 85.0958847,71.8987119 78.5010508,70.8595932 C71.9046305,69.8204746 67.4007254,63.6301831 68.4398441,57.0337627" id="Stroke-39" stroke="#042433" stroke-width="1.5" fill="none"></path>
                                </g>
                            </g>
                        </g>
                    </g>
                </g>
            </g>
        </g>
    </g>
</svg>