<svg width="420" height="98" viewBox="0 0 420 98" fill="none" xmlns="http://www.w3.org/2000/svg">
<rect width="420" height="98" rx="10" fill="#2256F2"/>
<path d="M43.9951 66L37.6089 66L37.6089 48.8232C37.6089 46.9681 37.689 44.9194 37.8491 42.6772L37.689 42.6772C37.3553 44.439 37.055 45.7069 36.7881 46.481L30.0615 66L24.7764 66L17.9297 46.6812C17.7428 46.1606 17.4425 44.826 17.0288 42.6772L16.8486 42.6772C17.0221 45.5067 17.1089 47.9891 17.1089 50.1245L17.1089 66L11.2832 66L11.2832 37.292L20.7524 37.292L26.6182 54.3086C27.0853 55.6699 27.4256 57.0379 27.6392 58.4126L27.7593 58.4126C28.1196 56.8244 28.5 55.443 28.9004 54.2686L34.7661 37.292L43.9951 37.292L43.9951 66ZM53.104 42.2568C52.0363 42.2568 51.1621 41.9432 50.4814 41.3159C49.8008 40.6753 49.4604 39.8945 49.4604 38.9736C49.4604 38.026 49.8008 37.252 50.4814 36.6514C51.1621 36.0508 52.0363 35.7505 53.104 35.7505C54.1851 35.7505 55.0592 36.0508 55.7266 36.6514C56.4072 37.252 56.7476 38.026 56.7476 38.9736C56.7476 39.9346 56.4072 40.722 55.7266 41.3359C55.0592 41.9499 54.1851 42.2568 53.104 42.2568ZM56.2271 66L49.9009 66L49.9009 45.5L56.2271 45.5L56.2271 66ZM81.3516 66L75.0454 66L75.0454 54.6089C75.0454 51.4325 73.911 49.8442 71.6421 49.8442C70.5477 49.8442 69.6468 50.2646 68.9395 51.1055C68.2321 51.9463 67.8784 53.014 67.8784 54.3086L67.8784 66L61.5522 66L61.5522 45.5L67.8784 45.5L67.8784 48.7432L67.9585 48.7432C69.4666 46.2474 71.6621 44.9995 74.5449 44.9995C79.0827 44.9995 81.3516 47.8156 81.3516 53.4478L81.3516 66ZM106.056 66L99.7495 66L99.7495 54.3486C99.7495 51.3457 98.6551 49.8442 96.4663 49.8442C95.3452 49.8442 94.4377 50.2646 93.7437 51.1055C93.0496 51.9463 92.7026 53.014 92.7026 54.3086L92.7026 66L86.3765 66L86.3765 35.6504L92.7026 35.6504L92.7026 48.543L92.7827 48.543C94.3309 46.1807 96.4329 44.9995 99.0889 44.9995C103.733 44.9995 106.056 47.8022 106.056 53.4077L106.056 66ZM128.137 66L122.151 66L122.151 63.0571L122.071 63.0571C120.697 65.3527 118.661 66.5005 115.965 66.5005C113.977 66.5005 112.409 65.9399 111.261 64.8188C110.126 63.6844 109.559 62.1763 109.559 60.2944C109.559 56.3172 111.915 54.0216 116.626 53.4077L122.191 52.667C122.191 50.4248 120.977 49.3037 118.548 49.3037C116.105 49.3037 113.783 50.0311 111.581 51.4858L111.581 46.7212C112.462 46.2674 113.663 45.867 115.185 45.52C116.719 45.173 118.114 44.9995 119.369 44.9995C125.214 44.9995 128.137 47.9157 128.137 53.748L128.137 66ZM122.191 57.6719L122.191 56.2905L118.468 56.771C116.412 57.0379 115.385 57.9655 115.385 59.5537C115.385 60.2744 115.632 60.8683 116.125 61.3354C116.633 61.7892 117.313 62.0161 118.167 62.0161C119.355 62.0161 120.323 61.609 121.07 60.7949C121.818 59.9674 122.191 58.9264 122.191 57.6719ZM151.56 56.1104L151.56 66L145.094 66L145.094 37.292L155.224 37.292C162.457 37.292 166.074 40.3416 166.074 46.4409C166.074 49.3237 165.033 51.6593 162.951 53.4478C160.882 55.2228 158.113 56.1104 154.643 56.1104L151.56 56.1104ZM151.56 42.2568L151.56 51.2056L154.103 51.2056C157.546 51.2056 159.268 49.6974 159.268 46.6812C159.268 43.7316 157.546 42.2568 154.103 42.2568L151.56 42.2568ZM183.031 51.2056C182.27 50.7918 181.382 50.585 180.368 50.585C178.993 50.585 177.919 51.0921 177.145 52.1064C176.371 53.1074 175.984 54.4754 175.984 56.2104L175.984 66L169.658 66L169.658 45.5L175.984 45.5L175.984 49.3037L176.064 49.3037C177.065 46.5277 178.867 45.1396 181.469 45.1396C182.137 45.1396 182.657 45.2197 183.031 45.3799L183.031 51.2056ZM195.603 66.5005C192.186 66.5005 189.497 65.5462 187.535 63.6377C185.587 61.7158 184.612 59.1133 184.612 55.8301C184.612 52.4401 185.627 49.7909 187.655 47.8823C189.684 45.9604 192.427 44.9995 195.883 44.9995C199.287 44.9995 201.956 45.9604 203.891 47.8823C205.826 49.7909 206.794 52.32 206.794 55.4697C206.794 58.873 205.793 61.5623 203.791 63.5376C201.802 65.5129 199.073 66.5005 195.603 66.5005ZM195.763 49.8442C194.268 49.8442 193.107 50.3581 192.28 51.3857C191.452 52.4134 191.039 53.8682 191.039 55.75C191.039 59.6872 192.627 61.6558 195.803 61.6558C198.833 61.6558 200.348 59.6338 200.348 55.5898C200.348 51.7594 198.819 49.8442 195.763 49.8442ZM223.63 40.4951C222.816 40.1748 222.035 40.0146 221.288 40.0146C219.259 40.0146 218.245 41.1157 218.245 43.3179L218.245 45.5L222.93 45.5L222.93 50.1645L218.245 50.1645L218.245 66L211.939 66L211.939 50.1645L208.496 50.1645L208.496 45.5L211.939 45.5L211.939 42.9575C211.939 40.6219 212.7 38.7401 214.221 37.312C215.743 35.884 217.811 35.1699 220.427 35.1699C221.708 35.1699 222.776 35.3034 223.63 35.5703L223.63 40.4951ZM229.196 42.2568C228.128 42.2568 227.254 41.9432 226.573 41.3159C225.893 40.6753 225.552 39.8945 225.552 38.9736C225.552 38.026 225.893 37.252 226.573 36.6514C227.254 36.0508 228.128 35.7505 229.196 35.7505C230.277 35.7505 231.151 36.0508 231.818 36.6514C232.499 37.252 232.839 38.026 232.839 38.9736C232.839 39.9346 232.499 40.722 231.818 41.3359C231.151 41.9499 230.277 42.2568 229.196 42.2568ZM232.319 66L225.993 66L225.993 45.5L232.319 45.5L232.319 66ZM236.303 65.4595L236.303 60.3345C237.344 60.9617 238.378 61.4289 239.406 61.7358C240.447 62.0428 241.428 62.1963 242.349 62.1963C243.47 62.1963 244.351 62.0428 244.991 61.7358C245.645 61.4289 245.972 60.9617 245.972 60.3345C245.972 59.9341 245.825 59.6004 245.532 59.3335C245.238 59.0666 244.858 58.833 244.391 58.6328C243.937 58.4326 243.436 58.2524 242.889 58.0923C242.342 57.9321 241.815 57.752 241.308 57.5518C240.493 57.2448 239.773 56.9178 239.146 56.5708C238.532 56.2104 238.011 55.7967 237.584 55.3296C237.17 54.8625 236.85 54.3219 236.623 53.708C236.41 53.0941 236.303 52.3667 236.303 51.5259C236.303 50.3781 236.55 49.3905 237.043 48.563C237.551 47.7355 238.218 47.0615 239.045 46.541C239.886 46.0072 240.84 45.6201 241.908 45.3799C242.989 45.1263 244.11 44.9995 245.271 44.9995C246.179 44.9995 247.1 45.0729 248.034 45.2197C248.968 45.3532 249.889 45.5534 250.797 45.8203L250.797 50.7051C249.996 50.238 249.135 49.8909 248.214 49.6641C247.307 49.4238 246.413 49.3037 245.532 49.3037C245.118 49.3037 244.724 49.3437 244.351 49.4238C243.99 49.4906 243.67 49.5973 243.39 49.7441C243.109 49.8776 242.889 50.0578 242.729 50.2847C242.569 50.4982 242.489 50.7451 242.489 51.0254C242.489 51.3991 242.609 51.7194 242.849 51.9863C243.089 52.2533 243.403 52.4868 243.79 52.687C244.177 52.8739 244.604 53.0474 245.071 53.2075C245.552 53.3543 246.026 53.5078 246.493 53.668C247.333 53.9616 248.094 54.2819 248.775 54.6289C249.456 54.9759 250.036 55.383 250.517 55.8501C251.01 56.3172 251.384 56.8644 251.638 57.4917C251.905 58.119 252.038 58.8664 252.038 59.7339C252.038 60.9484 251.771 61.9894 251.237 62.8569C250.717 63.7111 250.016 64.4118 249.135 64.959C248.268 65.4928 247.26 65.8799 246.112 66.1201C244.978 66.3737 243.797 66.5005 242.569 66.5005C240.313 66.5005 238.225 66.1535 236.303 65.4595ZM254.36 65.4595L254.36 60.3345C255.401 60.9617 256.436 61.4289 257.463 61.7358C258.504 62.0428 259.485 62.1963 260.406 62.1963C261.527 62.1963 262.408 62.0428 263.049 61.7358C263.703 61.4289 264.03 60.9617 264.03 60.3345C264.03 59.9341 263.883 59.6004 263.589 59.3335C263.296 59.0666 262.915 58.833 262.448 58.6328C261.994 58.4326 261.494 58.2524 260.947 58.0923C260.4 57.9321 259.872 57.752 259.365 57.5518C258.551 57.2448 257.83 56.9178 257.203 56.5708C256.589 56.2104 256.069 55.7967 255.642 55.3296C255.228 54.8625 254.908 54.3219 254.681 53.708C254.467 53.0941 254.36 52.3667 254.36 51.5259C254.36 50.3781 254.607 49.3905 255.101 48.563C255.608 47.7355 256.276 47.0615 257.103 46.541C257.944 46.0072 258.898 45.6201 259.966 45.3799C261.047 45.1263 262.168 44.9995 263.329 44.9995C264.237 44.9995 265.158 45.0729 266.092 45.2197C267.026 45.3532 267.947 45.5534 268.854 45.8203L268.854 50.7051C268.054 50.238 267.193 49.8909 266.272 49.6641C265.364 49.4238 264.47 49.3037 263.589 49.3037C263.176 49.3037 262.782 49.3437 262.408 49.4238C262.048 49.4906 261.728 49.5973 261.447 49.7441C261.167 49.8776 260.947 50.0578 260.787 50.2847C260.626 50.4982 260.546 50.7451 260.546 51.0254C260.546 51.3991 260.667 51.7194 260.907 51.9863C261.147 52.2533 261.461 52.4868 261.848 52.687C262.235 52.8739 262.662 53.0474 263.129 53.2075C263.609 53.3543 264.083 53.5078 264.55 53.668C265.391 53.9616 266.152 54.2819 266.833 54.6289C267.513 54.9759 268.094 55.383 268.574 55.8501C269.068 56.3172 269.442 56.8644 269.695 57.4917C269.962 58.119 270.096 58.8664 270.096 59.7339C270.096 60.9484 269.829 61.9894 269.295 62.8569C268.774 63.7111 268.074 64.4118 267.193 64.959C266.325 65.4928 265.318 65.8799 264.17 66.1201C263.035 66.3737 261.854 66.5005 260.626 66.5005C258.371 66.5005 256.282 66.1535 254.36 65.4595ZM290.816 66L284.83 66L284.83 63.0571L284.75 63.0571C283.375 65.3527 281.34 66.5005 278.644 66.5005C276.655 66.5005 275.087 65.9399 273.939 64.8188C272.805 63.6844 272.238 62.1763 272.238 60.2944C272.238 56.3172 274.593 54.0216 279.305 53.4077L284.87 52.667C284.87 50.4248 283.656 49.3037 281.227 49.3037C278.784 49.3037 276.462 50.0311 274.26 51.4858L274.26 46.7212C275.141 46.2674 276.342 45.867 277.863 45.52C279.398 45.173 280.793 44.9995 282.047 44.9995C287.893 44.9995 290.816 47.9157 290.816 53.748L290.816 66ZM284.87 57.6719L284.87 56.2905L281.146 56.771C279.091 57.0379 278.063 57.9655 278.063 59.5537C278.063 60.2744 278.31 60.8683 278.804 61.3354C279.311 61.7892 279.992 62.0161 280.846 62.0161C282.034 62.0161 283.002 61.609 283.749 60.7949C284.496 59.9674 284.87 58.9264 284.87 57.6719ZM289.254 36.0308C289.254 37.8992 288.881 39.3473 288.133 40.375C287.399 41.3893 286.392 41.8965 285.11 41.8965C283.963 41.8965 282.841 41.6095 281.747 41.0356C280.559 40.4084 279.738 40.0947 279.285 40.0947C278.217 40.0947 277.683 40.8154 277.683 42.2568L274.86 42.2568C274.86 40.4017 275.227 38.9603 275.961 37.9326C276.695 36.9049 277.723 36.3911 279.044 36.3911C280.125 36.3911 281.247 36.7181 282.408 37.3721C283.462 37.9593 284.263 38.2529 284.81 38.2529C285.851 38.2529 286.372 37.5122 286.372 36.0308L289.254 36.0308ZM305.59 66.5005C302.174 66.5005 299.484 65.5462 297.522 63.6377C295.574 61.7158 294.6 59.1133 294.6 55.8301C294.6 52.4401 295.614 49.7909 297.643 47.8823C299.671 45.9604 302.414 44.9995 305.871 44.9995C309.274 44.9995 311.943 45.9604 313.878 47.8823C315.814 49.7909 316.781 52.32 316.781 55.4697C316.781 58.873 315.78 61.5623 313.778 63.5376C311.79 65.5129 309.06 66.5005 305.59 66.5005ZM305.75 49.8442C304.256 49.8442 303.095 50.3581 302.267 51.3857C301.44 52.4134 301.026 53.8682 301.026 55.75C301.026 59.6872 302.614 61.6558 305.791 61.6558C308.82 61.6558 310.335 59.6338 310.335 55.5898C310.335 51.7594 308.807 49.8442 305.75 49.8442Z" fill="#F2E307"/>
<g clip-path="url(#clip0_210_49)">
<path d="M397.447 46.2685L397.454 46.2688C398.468 46.3201 399.243 47.1607 399.191 48.1828M397.447 46.2685L392.924 47.9636M397.447 46.2685L397.44 46.2683L394.331 46.2006M397.447 46.2685L394.314 46.7003M399.191 48.1828L398.699 48.1579L399.191 48.1828C399.191 48.1828 399.191 48.1828 399.191 48.1828ZM399.191 48.1828C399.141 49.1882 398.315 49.9735 397.286 49.9148M397.286 49.9148L397.295 49.915L397.306 49.4152L397.275 49.9142C397.279 49.9144 397.282 49.9146 397.286 49.9148ZM397.286 49.9148L394.18 49.8472L394.129 49.8461L394.078 49.8344L394.064 49.8312C393.858 49.7836 393.556 49.7136 393.297 49.5522C392.825 49.2571 392.358 48.65 392.426 47.926M392.426 47.926C392.425 47.9302 392.425 47.9343 392.425 47.9384L392.924 47.9636M392.426 47.926C392.426 47.9218 392.426 47.9175 392.427 47.9132L392.924 47.9636M392.426 47.926C392.483 46.9206 393.317 46.1534 394.331 46.2006M392.924 47.9636C392.962 47.2214 393.571 46.6628 394.314 46.7003M394.331 46.2006L394.324 46.2005L394.314 46.7003M394.331 46.2006C394.334 46.2007 394.336 46.2008 394.339 46.201L394.314 46.7003M390.656 34.5613L390.649 34.5651L390.641 34.5691C389.756 35.0629 389.416 36.1485 389.927 37.0496L389.948 37.0855L389.974 37.1176L389.983 37.1287C390.116 37.293 390.311 37.5342 390.57 37.6957C391.04 37.9896 391.786 38.143 392.406 37.771L395.16 36.3526L395.167 36.3493L395.173 36.3458C396.062 35.8552 396.39 34.7599 395.895 33.864C395.406 32.9773 394.315 32.6486 393.42 33.1377L390.656 34.5613ZM373.484 23.8311L373.552 20.7225C373.599 19.7039 372.825 18.8673 371.814 18.8162C370.792 18.7646 369.951 19.5395 369.9 20.5536L369.9 20.5536L369.899 20.5674L369.828 23.6707C369.766 24.3909 370.231 24.9944 370.701 25.2883C370.959 25.4497 371.262 25.5196 371.468 25.5673L371.482 25.5706L371.525 25.5806L371.569 25.5828C372.592 25.6346 373.432 24.8595 373.483 23.8454L373.484 23.8383L373.484 23.8311ZM368.083 69.0155L368.088 69.0083L368.092 69.0008C368.527 68.2496 369.38 67.406 370.654 66.5342C371.913 65.6729 373.552 64.806 375.523 63.9889C376.559 63.7443 377.539 63.3061 378.471 62.8813L378.671 62.7941C378.926 62.7223 379.114 62.6052 379.299 62.4587C381.958 60.9794 384.218 58.8989 385.83 56.3192C390.995 48.0525 388.46 37.0839 380.156 31.9833C371.895 26.8221 360.927 29.3497 355.761 37.617C354.15 40.1954 353.228 43.2103 353.13 46.3044C353.118 46.4147 353.12 46.5036 353.123 46.5678L353.123 46.5696C353.125 46.6372 353.126 46.6705 353.122 46.7151L353.122 46.7151L353.121 46.7274C353.03 48.0062 353.215 49.2631 353.428 50.421C353.517 52.4871 353.446 54.2945 353.228 55.7677C353.006 57.2599 352.64 58.3636 352.173 59.0504L352.167 59.0585L352.162 59.0668L352.162 59.0671L352.161 59.0675L352.161 59.0679L352.161 59.0683L352.161 59.0686L352.161 59.069L352.16 59.0694L352.16 59.0697L352.16 59.0701L352.16 59.0705L352.159 59.0709L352.159 59.0713L352.159 59.0716L352.159 59.072L352.158 59.0724L352.158 59.0728L352.158 59.0732L352.158 59.0736L352.157 59.074L352.157 59.0743L352.157 59.0747L352.157 59.0751L352.156 59.0755L352.156 59.0759L352.156 59.0763L352.156 59.0767L352.155 59.0771L352.155 59.0775L352.155 59.0779L352.155 59.0783L352.154 59.0787L352.154 59.0791L352.154 59.0795L352.154 59.0799L352.153 59.0803L352.153 59.0807L352.153 59.0812L352.153 59.0816L352.152 59.082L352.152 59.0824L352.152 59.0828L352.152 59.0832L352.151 59.0836L352.151 59.0841L352.151 59.0845L352.151 59.0849L352.15 59.0853L352.15 59.0857L352.15 59.0862L352.15 59.0866L352.149 59.087L352.149 59.0874L352.149 59.0879L352.149 59.0883L352.148 59.0887L352.148 59.0891L352.148 59.0896L352.147 59.09L352.147 59.0904L352.147 59.0909L352.147 59.0913L352.146 59.0917L352.146 59.0922L352.146 59.0926L352.146 59.0931L352.145 59.0935L352.145 59.0939L352.145 59.0944L352.144 59.0948L352.144 59.0953L352.144 59.0957L352.144 59.0962L352.143 59.0966L352.143 59.0971L352.143 59.0975L352.142 59.098L352.142 59.0984L352.142 59.0989L352.142 59.0993L352.141 59.0998L352.141 59.1002L352.141 59.1007L352.14 59.1011L352.14 59.1016L352.14 59.102L352.14 59.1025L352.139 59.103L352.139 59.1034L352.139 59.1039L352.138 59.1043L352.138 59.1048L352.138 59.1053L352.138 59.1057L352.137 59.1062L352.137 59.1067L352.137 59.1071L352.136 59.1076L352.136 59.1081L352.136 59.1085L352.136 59.109L352.135 59.1095L352.135 59.1099L352.135 59.1104L352.134 59.1109L352.134 59.1114L352.134 59.1118L352.133 59.1123L352.133 59.1128L352.133 59.1133L352.133 59.1137L352.132 59.1142L352.132 59.1147L352.132 59.1152L352.131 59.1157L352.131 59.1161L352.131 59.1166L352.13 59.1171L352.13 59.1176L352.13 59.1181L352.13 59.1186L352.129 59.119L352.129 59.1195L352.129 59.12L352.128 59.1205L352.128 59.121L352.128 59.1215L352.127 59.122L352.127 59.1225L352.127 59.1229L352.127 59.1234L352.126 59.1239L352.126 59.1244L352.126 59.1249L352.125 59.1254L352.125 59.1259L352.125 59.1264L352.124 59.1269L352.124 59.1274L352.124 59.1279L352.123 59.1284L352.123 59.1289L352.123 59.1294L352.123 59.1299L352.122 59.1304L352.122 59.1309L352.122 59.1314L352.121 59.1319L352.121 59.1324L352.121 59.1329L352.12 59.1334L352.12 59.1339L352.12 59.1344L352.119 59.1349L352.119 59.1354L352.119 59.1359L352.118 59.1364L352.118 59.1369L352.118 59.1374L352.117 59.138L352.117 59.1385L352.117 59.139L352.117 59.1395L352.116 59.14L352.116 59.1405L352.116 59.141L352.115 59.1415L352.115 59.142L352.115 59.1425L352.114 59.1431L352.114 59.1436L352.114 59.1441L352.113 59.1446L352.113 59.1451L352.113 59.1456L352.112 59.1461L352.112 59.1467L352.112 59.1472L352.111 59.1477L352.111 59.1482L352.111 59.1487L352.11 59.1492L352.11 59.1498L352.11 59.1503L352.109 59.1508L352.109 59.1513L352.109 59.1518L352.108 59.1524L352.108 59.1529L352.108 59.1534L352.107 59.1539L352.107 59.1544L352.107 59.155L352.107 59.1555L352.106 59.156L352.106 59.1565L352.106 59.1571L352.105 59.1576L352.105 59.1581L352.105 59.1586L352.104 59.1591L352.104 59.1597L352.104 59.1602L352.103 59.1607L352.103 59.1612L352.103 59.1618L352.102 59.1623L352.102 59.1628L352.102 59.1633L352.101 59.1639L352.101 59.1644L352.101 59.1649L352.1 59.1655L352.1 59.166L352.1 59.1665L352.099 59.167L352.099 59.1676L352.099 59.1681L352.098 59.1686L352.098 59.1691L352.098 59.1697L352.097 59.1702L352.097 59.1707L352.097 59.1713L352.096 59.1718L352.096 59.1723L352.096 59.1729L352.095 59.1734L352.095 59.1739L352.095 59.1744L352.094 59.175L352.094 59.1755L352.094 59.176L352.093 59.1766L352.093 59.1771L352.093 59.1776L352.092 59.1782L352.092 59.1787L352.092 59.1792L352.091 59.1798L352.091 59.1803L352.091 59.1808L352.09 59.1813L352.09 59.1819L352.09 59.1824L352.089 59.1829L352.089 59.1835L352.089 59.184L352.088 59.1845L352.088 59.1851L352.088 59.1856L352.087 59.1861L352.087 59.1867L352.087 59.1872L352.086 59.1877L352.086 59.1883L352.086 59.1888L352.085 59.1893L352.085 59.1899L352.085 59.1904L352.084 59.1909L352.084 59.1915L352.084 59.192L352.083 59.1925L352.083 59.1931L352.083 59.1936L352.082 59.1941L352.082 59.1946L352.082 59.1952L352.081 59.1957L352.081 59.1962L352.081 59.1968L352.08 59.1973L352.08 59.1978L352.08 59.1984L352.079 59.1989L352.079 59.1994L352.079 59.2L352.078 59.2005L352.078 59.201L352.078 59.2016L352.077 59.2021L352.077 59.2026L352.077 59.2031L352.076 59.2037L352.076 59.2042L352.076 59.2047L352.075 59.2053L352.075 59.2058L352.075 59.2063L352.074 59.2069L352.074 59.2074L352.074 59.2079L352.073 59.2084L352.073 59.209L352.073 59.2095L352.072 59.21L352.072 59.2106L352.072 59.2111L352.071 59.2116L352.071 59.2121L352.071 59.2127L352.07 59.2132L352.07 59.2137L352.07 59.2142L352.069 59.2148L352.069 59.2153L352.069 59.2158L352.068 59.2163L352.068 59.2169L352.068 59.2174L352.067 59.2179L352.067 59.2184L352.067 59.219L352.067 59.2195L352.066 59.22L352.066 59.2205L352.066 59.2211L352.065 59.2216L352.065 59.2221L352.065 59.2226L352.064 59.2232L352.064 59.2237L352.064 59.2242L352.063 59.2247L352.063 59.2252L352.063 59.2258L352.062 59.2263L352.062 59.2268L352.062 59.2273L352.061 59.2278L352.061 59.2284L352.061 59.2289L352.06 59.2294L352.06 59.2299L352.06 59.2304L352.059 59.2309L352.059 59.2315L352.059 59.232L352.058 59.2325L352.058 59.233L352.058 59.2335L352.057 59.234L352.057 59.2345L352.057 59.2351L352.056 59.2356L352.056 59.2361L352.056 59.2366L352.056 59.2371L352.055 59.2376L352.055 59.2381L352.055 59.2386L352.054 59.2391L352.054 59.2396L352.054 59.2402L352.053 59.2407L352.053 59.2412L352.053 59.2417L352.052 59.2422L352.052 59.2427L352.052 59.2432L352.051 59.2437L352.051 59.2442L352.051 59.2447L352.05 59.2452L352.05 59.2457L352.05 59.2462L352.05 59.2467L352.049 59.2472L352.049 59.2477L352.049 59.2482L352.048 59.2487L352.048 59.2492L352.048 59.2497L352.047 59.2502L352.047 59.2507L352.047 59.2512L352.046 59.2517L352.046 59.2522L352.046 59.2527L352.045 59.2532L352.045 59.2537L352.045 59.2542L352.045 59.2547L352.044 59.2551L352.044 59.2556L352.044 59.2561L352.043 59.2566L352.043 59.2571L352.043 59.2576L352.042 59.2581L352.042 59.2586L352.042 59.2591L352.041 59.2595L352.041 59.26L352.041 59.2605L352.041 59.261L352.04 59.2615L352.04 59.262L352.04 59.2624L352.039 59.2629L352.039 59.2634L352.039 59.2639L352.038 59.2643L352.038 59.2648L352.038 59.2653L352.038 59.2658L352.037 59.2662L352.037 59.2667L352.037 59.2672L352.036 59.2677L352.036 59.2681L352.036 59.2686L352.036 59.2691L352.035 59.2696L352.035 59.27L352.035 59.2705L352.034 59.271L352.034 59.2714L352.034 59.2719L352.033 59.2724L352.033 59.2728L352.033 59.2733L352.033 59.2737L352.032 59.2742L352.032 59.2747L352.032 59.2751L352.031 59.2756L352.031 59.276L352.031 59.2765L352.031 59.277L352.03 59.2774L352.03 59.2779L352.03 59.2783L352.029 59.2788L352.029 59.2792L352.029 59.2797L352.029 59.2801L352.028 59.2806L352.028 59.281L352.028 59.2815L352.028 59.2819L352.027 59.2824L352.027 59.2828L352.027 59.2832L352.026 59.2837L352.026 59.2841L352.026 59.2846L352.026 59.285L352.025 59.2854L352.025 59.2859L352.025 59.2863L352.024 59.2868L352.024 59.2872L352.024 59.2876L352.024 59.2881L352.023 59.2885L352.023 59.2889L352.023 59.2893L352.023 59.2898L352.022 59.2902L352.022 59.2906L352.022 59.291L352.022 59.2915L352.021 59.2919L352.021 59.2923L352.021 59.2927L352.02 59.2932L352.02 59.2936L352.02 59.294L352.02 59.2944L352.019 59.2948L352.019 59.2952L352.019 59.2957L352.019 59.2961L352.018 59.2965L352.018 59.2969L352.018 59.2973L352.018 59.2977L352.017 59.2981L352.017 59.2985L352.017 59.2989L352.017 59.2993L352.016 59.2997L352.016 59.3001L352.016 59.3005L352.016 59.3009L352.015 59.3013L352.015 59.3017L352.015 59.3021L352.015 59.3025L352.014 59.3029L352.014 59.3033L352.014 59.3037L352.014 59.3041L352.013 59.3045L352.013 59.3049L352.013 59.3052L352.013 59.3056L352.012 59.306L352.012 59.3064L352.012 59.3068L352.012 59.3071L352.012 59.3075L352.011 59.3079L352.011 59.3083L352.011 59.3087L352.011 59.309L352.01 59.3094L352.01 59.3098L352.01 59.3101L352.01 59.3105L352.009 59.3109L352.009 59.3116L352.009 59.3123L352.008 59.3131L352.008 59.3138L352.007 59.3145L352.007 59.3152L352.006 59.316L352.006 59.3167L352.005 59.3174L352.005 59.3181L352.004 59.3188L352.004 59.3195L352.004 59.3203L352.003 59.321L352.003 59.3217L352.002 59.3224L352.002 59.3231L352.001 59.3238L352.001 59.3245L352 59.3252L352 59.3259L352 59.3266L351.999 59.3273L351.999 59.328L351.998 59.3287L351.998 59.3294L351.997 59.3301L351.997 59.3308L351.997 59.3315L351.996 59.3322L351.996 59.3328L351.995 59.3335L351.995 59.3342L351.994 59.3349L351.994 59.3356L351.994 59.3363L351.993 59.3369L351.993 59.3376L351.992 59.3383L351.992 59.339L351.991 59.3396L351.991 59.3403L351.991 59.341L351.99 59.3416L351.99 59.3423L351.989 59.343L351.989 59.3437L351.989 59.3443L351.988 59.345L351.988 59.3456L351.987 59.3463L351.987 59.347L351.986 59.3476L351.986 59.3483L351.986 59.3489L351.985 59.3496L351.985 59.3502L351.984 59.3509L351.984 59.3515L351.984 59.3522L351.983 59.3528L351.983 59.3535L351.982 59.3541L351.982 59.3548L351.982 59.3554L351.981 59.3561L351.981 59.3567L351.98 59.3574L351.98 59.358L351.98 59.3586L351.979 59.3593L351.979 59.3599L351.978 59.3605L351.978 59.3612L351.978 59.3618L351.977 59.3624L351.977 59.3631L351.976 59.3637L351.976 59.3643L351.976 59.3649L351.975 59.3656L351.975 59.3662L351.974 59.3668L351.974 59.3674L351.974 59.3681L351.973 59.3687L351.973 59.3693L351.973 59.3699L351.972 59.3705L351.972 59.3712L351.971 59.3718L351.971 59.3724L351.971 59.373L351.97 59.3736L351.97 59.3742L351.969 59.3748L351.969 59.3755L351.969 59.3761L351.968 59.3767L351.968 59.3773L351.968 59.3779L351.967 59.3785L351.967 59.3791L351.966 59.3797L351.966 59.3803L351.966 59.3809L351.965 59.3815L351.965 59.3821L351.965 59.3827L351.964 59.3833L351.964 59.3839L351.963 59.3845L351.963 59.3851L351.963 59.3857L351.962 59.3863L351.962 59.3869L351.962 59.3875L351.961 59.388L351.961 59.3886L351.96 59.3892L351.96 59.3898L351.96 59.3904L351.959 59.391L351.959 59.3916L351.959 59.3922L351.958 59.3927L351.958 59.3933L351.958 59.3939L351.957 59.3945L351.957 59.3951L351.956 59.3956L351.956 59.3962L351.956 59.3968L351.955 59.3974L351.955 59.398L351.955 59.3985L351.954 59.3991L351.954 59.3997L351.954 59.4003L351.953 59.4008L351.953 59.4014L351.952 59.402L351.952 59.4025L351.952 59.4031L351.951 59.4037L351.951 59.4043L351.951 59.4048L351.95 59.4054L351.95 59.406L351.95 59.4065L351.949 59.4071L351.949 59.4077L351.949 59.4082L351.948 59.4088L351.948 59.4094L351.948 59.4099L351.947 59.4105L351.947 59.411L351.946 59.4116L351.946 59.4122L351.946 59.4127L351.945 59.4133L351.945 59.4138L351.945 59.4144L351.944 59.415L351.944 59.4155L351.944 59.4161L351.943 59.4166L351.943 59.4172L351.943 59.4177L351.942 59.4183L351.942 59.4188L351.942 59.4194L351.941 59.42L351.941 59.4205L351.941 59.4211L351.94 59.4216L351.94 59.4222L351.94 59.4227L351.939 59.4233L351.939 59.4238L351.938 59.4244L351.938 59.4249L351.938 59.4255L351.937 59.426L351.937 59.4266L351.937 59.4271L351.936 59.4276L351.936 59.4282L351.936 59.4287L351.935 59.4293L351.935 59.4298L351.935 59.4304L351.934 59.4309L351.934 59.4315L351.934 59.432L351.933 59.4325L351.933 59.4331L351.933 59.4336L351.932 59.4342L351.932 59.4347L351.932 59.4353L351.931 59.4358L351.931 59.4363L351.931 59.4369L351.93 59.4374L351.93 59.438L351.93 59.4385L351.929 59.439L351.929 59.4396L351.929 59.4401L351.928 59.4407L351.928 59.4412L351.928 59.4417L351.927 59.4423L351.927 59.4428L351.927 59.4433L351.926 59.4439L351.926 59.4444L351.926 59.445L351.925 59.4455L351.925 59.446L351.925 59.4466L351.924 59.4471L351.924 59.4476L351.924 59.4482L351.923 59.4487L351.923 59.4492L351.923 59.4498L351.922 59.4503L351.922 59.4508L351.922 59.4514L351.921 59.4519L351.921 59.4524L351.921 59.453L351.92 59.4535L351.92 59.454L351.92 59.4546L351.919 59.4551L351.919 59.4556L351.919 59.4562L351.918 59.4567L351.918 59.4572L351.918 59.4578L351.917 59.4583L351.917 59.4588L351.917 59.4594L351.916 59.4599L351.916 59.4604L351.916 59.461L351.915 59.4615L351.915 59.462L351.915 59.4626L351.914 59.4631L351.914 59.4636L351.914 59.4642L351.913 59.4647L351.913 59.4652L351.913 59.4658L351.912 59.4663L351.912 59.4668L351.912 59.4674L351.911 59.4679L351.911 59.4684L351.911 59.469L351.91 59.4695L351.91 59.47L351.91 59.4705L351.909 59.4711L351.909 59.4716L351.909 59.4721L351.908 59.4727L351.908 59.4732L351.908 59.4737L351.907 59.4743L351.907 59.4748L351.907 59.4753L351.906 59.4759L351.906 59.4764L351.906 59.4769L351.905 59.4775L351.905 59.478L351.905 59.4786L351.904 59.4791L351.904 59.4796L351.904 59.4802L351.903 59.4807L351.903 59.4812L351.903 59.4818L351.902 59.4823L351.902 59.4828L351.902 59.4834L351.901 59.4839L351.901 59.4844L351.901 59.485L351.9 59.4855L351.9 59.4861L351.9 59.4866L351.899 59.4871L351.899 59.4877L351.899 59.4882L351.898 59.4887L351.898 59.4893L351.898 59.4898L351.897 59.4904L351.897 59.4909L351.897 59.4914L351.896 59.492L351.896 59.4925L351.896 59.4931L351.895 59.4936L351.895 59.4941L351.895 59.4947L351.894 59.4952L351.894 59.4958L351.894 59.4963L351.893 59.4969L351.893 59.4974L351.893 59.4979L351.892 59.4985L351.892 59.499L351.891 59.4996L351.891 59.5001L351.891 59.5007L351.89 59.5012L351.89 59.5018L351.89 59.5023L351.889 59.5029L351.889 59.5034L351.889 59.504L351.888 59.5045L351.888 59.5051L351.888 59.5056L351.887 59.5062L351.887 59.5067L351.887 59.5073L351.886 59.5078L351.886 59.5084L351.886 59.5089L351.885 59.5095L351.885 59.51L351.885 59.5106L351.884 59.5111L351.884 59.5117L351.884 59.5122L351.883 59.5128L351.883 59.5134L351.883 59.5139L351.882 59.5145L351.882 59.515L351.881 59.5156L351.881 59.5162L351.881 59.5167L351.88 59.5173L351.88 59.5178L351.88 59.5184L351.879 59.519L351.879 59.5195L351.879 59.5201L351.878 59.5207L351.878 59.5212L351.878 59.5218L351.877 59.5224L351.877 59.5229L351.877 59.5235L351.876 59.5241L351.876 59.5246L351.875 59.5252L351.875 59.5258L351.875 59.5263L351.874 59.5269L351.874 59.5275L351.874 59.5281L351.873 59.5286L351.873 59.5292L351.873 59.5298L351.872 59.5304L351.872 59.5309L351.872 59.5315L351.871 59.5321L351.871 59.5327L351.87 59.5333L351.87 59.5338L351.87 59.5344L351.869 59.535L351.869 59.5356L351.869 59.5362L351.868 59.5368L351.868 59.5373L351.868 59.5379L351.867 59.5385L351.867 59.5391L351.866 59.5397L351.866 59.5403L351.866 59.5409L351.865 59.5415L351.865 59.5421L351.865 59.5426L351.864 59.5432L351.864 59.5438L351.863 59.5444L351.863 59.545L351.863 59.5456L351.862 59.5462L351.862 59.5468L351.862 59.5474L351.861 59.548L351.861 59.5486L351.86 59.5492L351.86 59.5498L351.86 59.5504L351.859 59.551L351.859 59.5517L351.859 59.5523L351.858 59.5529L351.858 59.5535L351.857 59.5541L351.857 59.5547L351.857 59.5553L351.856 59.5559L351.856 59.5565L351.856 59.5572L351.855 59.5578L351.855 59.5584L351.854 59.559L351.854 59.5596L351.854 59.5603L351.853 59.5609L351.853 59.5615L351.852 59.5621L351.852 59.5627L351.852 59.5634L351.851 59.564L351.851 59.5646L351.85 59.5653L351.85 59.5659L351.85 59.5665L351.849 59.5672L351.849 59.5678L351.848 59.5684L351.848 59.5691L351.848 59.5697L351.847 59.5703L351.847 59.571L351.846 59.5716L351.846 59.5723L351.846 59.5729L351.845 59.5735L351.845 59.5742L351.844 59.5748L351.844 59.5755L351.844 59.5761L351.843 59.5768L351.843 59.5774L351.842 59.5781L351.842 59.5787L351.842 59.5794L351.841 59.58L351.841 59.5807L351.84 59.5814L351.84 59.582L351.84 59.5827L351.839 59.5833L351.839 59.584L351.838 59.5847L351.838 59.5853L351.837 59.586L351.837 59.5867L351.837 59.5873L351.836 59.588L351.836 59.5887L351.835 59.5894L351.835 59.59L351.835 59.5907L351.834 59.5914L351.834 59.5921L351.833 59.5927L351.833 59.5934L351.832 59.5941L351.832 59.5948L351.832 59.5955L351.831 59.5962L351.831 59.5969L351.83 59.5975L351.83 59.5982L351.829 59.5989L351.829 59.5996L351.829 59.6003L351.828 59.601L351.828 59.6017L351.827 59.6024L351.827 59.6031L351.826 59.6038L351.826 59.6045L351.825 59.6052L351.825 59.6059L351.825 59.6066L351.824 59.6074L351.824 59.6081L351.823 59.6088L351.823 59.6095L351.822 59.6102L351.822 59.6109L351.821 59.6116L351.821 59.6124L351.821 59.6131L351.82 59.6138L351.82 59.6145L351.819 59.6153L351.819 59.616L351.818 59.6167L351.818 59.6174L348.522 64.8918C346.963 67.3871 347.678 70.7485 350.244 72.3519L357.046 76.602C359.541 78.1612 362.903 77.4457 364.506 74.8797L367.802 69.6053C367.886 69.4711 367.941 69.3312 367.978 69.2381C367.998 69.1856 368.012 69.1511 368.025 69.1188C368.039 69.0869 368.045 69.077 368.044 69.078L368.083 69.0155ZM351.587 66.9063L351.593 66.8951L351.597 66.8836L351.721 66.5771L361.547 72.7189L361.338 73.0241C360.756 73.7314 359.784 73.8971 359.036 73.4296L352.229 69.176C351.471 68.7025 351.198 67.7499 351.587 66.9063ZM356.749 46.6254L356.39 46.6226L356.288 46.5592L356.788 46.576C356.872 44.0682 357.577 41.6256 358.907 39.4962C363.015 32.9231 371.673 30.9241 378.246 35.0314C384.819 39.1388 386.818 47.7971 382.711 54.3701C381.374 56.5089 379.548 58.2452 377.384 59.3517L377.289 59.4006C377.285 59.4024 377.281 59.4043 377.277 59.4063C377.273 59.4084 377.269 59.4107 377.265 59.4129L377.261 59.4147L377.261 59.4149C377.231 59.4313 377.201 59.4514 377.171 59.476C377.16 59.4807 377.149 59.4861 377.137 59.4922C377.099 59.5113 377.061 59.5362 377.023 59.5684C376.297 59.9751 375.459 60.308 374.643 60.4986C374.635 60.4987 374.62 60.499 374.595 60.4997C374.561 60.5007 374.471 60.5043 374.37 60.547C374.33 60.564 374.293 60.5849 374.26 60.6089C372.819 61.2093 371.088 62.0509 369.469 63.0281C367.975 63.9294 366.547 64.963 365.532 66.0479L355.805 59.8935C356.707 57.5718 357.283 54.0118 357.073 50.0426L357.071 49.999L357.061 49.9565L357.017 49.7654C356.833 48.7406 356.741 47.6898 356.749 46.6254ZM359.982 22.8623L359.979 22.8559L359.975 22.8496C359.487 21.964 358.396 21.6246 357.493 22.1276C356.61 22.6154 356.271 23.7015 356.768 24.603L358.184 27.3537C358.352 27.7251 358.649 27.9101 358.823 28.0178C358.83 28.0222 358.837 28.0265 358.843 28.0306C359.321 28.3291 360.064 28.4731 360.687 28.1013C361.556 27.6038 361.897 26.5247 361.406 25.6266L359.982 22.8623ZM382.277 28.8587C383.124 29.3882 384.226 29.1338 384.755 28.2865L386.402 25.6521C386.931 24.8048 386.677 23.703 385.829 23.1735C384.982 22.644 383.88 22.8984 383.351 23.7457L381.717 26.3601C381.086 27.1981 381.4 28.3109 382.277 28.8587ZM351.947 33.1918L349.313 31.5457C348.466 31.0162 347.364 31.2706 346.834 32.1179C346.305 32.9652 346.559 34.0671 347.407 34.5966L350.041 36.2427C350.888 36.7721 351.99 36.5177 352.52 35.6704C353.049 34.8231 352.795 33.7212 351.947 33.1918ZM394.318 59.6679L391.684 58.0218C390.836 57.4923 389.734 57.7467 389.205 58.594C388.675 59.4413 388.93 60.5432 389.777 61.0726L392.412 62.7187C393.259 63.2482 394.361 62.9938 394.89 62.1465C395.42 61.2992 395.165 60.1973 394.318 59.6679ZM353.128 64.3417L354.274 62.5942L364.027 68.6883L362.786 70.539L353.128 64.3417Z" fill="#F2E307" stroke="#F2E307"/>
</g>
<defs>
<clipPath id="clip0_210_49">
<rect width="66" height="66" fill="white" transform="translate(337 16)"/>
</clipPath>
</defs>
</svg>
